/* XPM */
static char *bubble_5[] = {
/* columns rows colors chars-per-pixel */
"16 16 9 1 ",
"  c #A5E5FF",
". c #B6EAFF",
"X c #B9EBFF",
"o c #C1EDFF",
"O c #C9EFFE",
"+ c #DDF5FE",
"@ c #E0F5FE",
"# c #FFFFFE",
"$ c None",
/* pixels */
"$$$$$$$$$$$$$$$$",
"$$$$$$$$$$$$$$$$",
"$$$$X $$$$$$$$$$",
"$$$.#O$$$$$$$$$$",
"$$$o+$$$$$$$$$$$",
"$$$$$$$$$$$$$$$$",
"$$@$$$$$$$$$$$$$",
"$$$$$$$$$$$$$$$$",
"$$$$$$$$$$$$$$$$",
"$$$$$$$$$$$$$$$$",
"$$$$$$$$$$$$$$$$",
"$$$$$$$$$$$$$$$$",
"$$$$$$$$$$$$$$$$",
"$$$$$$$$$$$$$$$$",
"$$$$$$$$$$$$$$$$",
"$$$$$$$$$$$$$$$$"
};
