/* XPM */
static char *_3[] = {
/* columns rows colors chars-per-pixel */
"16 16 6 1 ",
"  c black",
". c #F76A22",
"X c #F77622",
"o c #FEAE34",
"O c #FEE761",
"+ c None",
/* pixels */
"++++++++++++++++",
"++++++++++++++++",
"++++++     +++++",
"+++++ OOOOX ++++",
"++++ oooooOX +++",
"+++ ooOOOooOX ++",
"+++ o.oooOoOX ++",
"+++ o.oooOoOX ++",
"+++ o.oooOoOX ++",
"+++ o.oooOoOX ++",
"+++ oo...ooOX ++",
"++++ oooooOX +++",
"+++++ XXXXX ++++",
"++++++     +++++",
"++++++++++++++++",
"++++++++++++++++"
};
