/* XPM */
static char *_[] = {
/* columns rows colors chars-per-pixel */
"16 16 6 1 ",
"  c black",
". c #F76A22",
"X c #F77622",
"o c #FEAE34",
"O c #FEE761",
"+ c None",
/* pixels */
"++++++++++++++++",
"++++++++++++++++",
"++++++     +++++",
"+++++ OOOOO ++++",
"++++ XoooooO +++",
"+++ XooOOOooO ++",
"+++ Xo.oooOoO ++",
"+++ Xo.oooOoO ++",
"+++ Xo.oooOoO ++",
"+++ Xo.oooOoO ++",
"+++ Xoo...ooO ++",
"++++ XoooooO +++",
"+++++ XXXXX ++++",
"++++++     +++++",
"++++++++++++++++",
"++++++++++++++++"
};
