/* XPM */
static char *collectible[] = {
/* columns rows colors chars-per-pixel */
"32 32 10 1 ",
"  c #21181B",
". c #3F2832",
"X c #743F39",
"o c #262B44",
"O c #3A4466",
"+ c #B86F50",
"@ c #5A6988",
"# c #8B9BB4",
"$ c #C0CBDC",
"% c None",
/* pixels */
"%%%%%%%%%%%%%%%%%%%%%%%%%%%%%%%%",
"%%%%%%%%%%%%%%%%%%%%%%%%%%%%%%%%",
"%%%%%%%%%%%%%%%%%%%%%%%%%%%%%%%%",
"%%%%%%%%%%%%%%%%%%%%%%%%%%%%%%%%",
"%%%%%%%%%%%%%%%%%%%%%%%%%%%%%%%%",
"%%%%%%%%%%%%%%%%%%%%%%%%%%%%%%%%",
"%%%%%%%%%%%%%%%%%%%%%%%%%%%%%%%%",
"%%%%%%%%%             %%%%%%%%%%",
"%%%%%%%% ...XXXX++++XX %%%%%%%%%",
"%%%%%%%                 %%%%%%%%",
"%%%%%%  .. XX X X++ XX . %%%%%%%",
"%%%%%%  .. XX X X++ XX . %%%%%%%",
"%%%%% . .. XX X X++ XX .. %%%%%%",
"%%%%%ooooooooooo@@@@oooooo%%%%%%",
"%%%%oOOOOO@@@###$$$$@@@@Ooo%%%%%",
"%%%%oOOoOOo@@O##$O$$@o@@oOo%%%%%",
"%%%%oOOOOOO@@###$$$$@@@OOOo%%%%%",
"%%%% ooooooooooo@@@@oooooo %%%%%",
"%%%% . .. .X XX X++ XX ..  %%%%%",
"%%%% . .. .X XX X++ XX ..  %%%%%",
"%%%% . .. .X XX X++ XX ..  %%%%%",
"%%%% . .. .X XX X++ XX ..  %%%%%",
"%%%%%  .. .X XX X++ XX .. %%%%%%",
"%%%%%  .. .X XX X++ XX .. %%%%%%",
"%%%%%  oooooooo@@@@ooooo  %%%%%%",
"%%%%%%oOOO@@@@##$$$@@@@Oo%%%%%%%",
"%%%%%%oOoO@o@@O#$O$@@oOOo%%%%%%%",
"%%%%%%oOOOO@@@##$$$@@OOOo%%%%%%%",
"%%%%%%%ooooooooo@@@ooooo%%%%%%%%",
"%%%%%%% .. .X X X+ XX . %%%%%%%%",
"%%%%%%%%               %%%%%%%%%",
"%%%%%%%%%%%%%%%%%%%%%%%%%%%%%%%%"
};
