/* XPM */
static char *_[] = {
/* columns rows colors chars-per-pixel */
"58 58 2 1 ",
"  c white",
". c None",
/* pixels */
"..........................................................",
"..........................................................",
"..........................................................",
"...............      .....................................",
"...............       ....................................",
"...............       ....................................",
"...............           ................................",
".................                        .................",
".................                          ...............",
"...............                              .............",
"...............                               ............",
"...............                                ...........",
"...............                                ...........",
"............   ...                              ..........",
"............     .                              ..........",
"............     .                              ..........",
".............                                   ..........",
".............                                   ..........",
".............                                   ..........",
"...........                                     ..........",
"...........                                     ..........",
"...........                                     ..........",
".........                                       ..........",
".......                                         ..........",
".......                                         ..........",
".....                                           ..........",
".....                                           ..........",
"...                                             ..........",
"...                                             ..........",
"...                                             ..........",
"...                                             ..........",
"...                                            ...........",
"...                                                  .....",
"...                                                  .....",
"...                                                    ...",
"...                                                    ...",
"...                                                    ...",
"...                                                    ...",
"...                                                  .....",
"...                                           ............",
"...                                           ............",
"...                                           ............",
"...                                           ............",
"...                                           ............",
"...                                           ............",
"...                                           ............",
".....                                         ............",
".....                                         ............",
".......                                       ............",
".......                                       ............",
"...................                           ............",
".....................       ..........        ............",
".......................     ...........      .............",
".......................    .............     .............",
"........................................    ..............",
"........................................   ...............",
"..........................................................",
".........................................................."
};
