/* XPM */
static char *_[] = {
/* columns rows colors chars-per-pixel */
"58 58 15 1 ",
"  c #323443",
". c #23787E",
"X c #BD3B53",
"o c #A45B51",
"O c #E86363",
"+ c #36A57C",
"@ c #C58D71",
"# c #F29478",
"$ c #6D718E",
"% c #95A2B0",
"& c #E39B89",
"* c #DEB892",
"= c #FDCAAB",
"- c white",
"; c None",
/* pixels */
";;;;;;;;;;;;;;;;;;;;;;;;;;;;;;;;;;;;;;;;;;;;;;;;;;;;;;;;;;",
";;;;;;;;;;;;;;;;;;;;;;;;;;;;;;;;;;;;;;;;;;;;;;;;;;;;;;;;;;",
";;;;;;;;;;;;;;;;;;;;;;;;;;;;;;;;;;;;;;;;;;;;;;;;;;;;;;;;;;",
";;;;;;;;;;;;;;;      ;;;;;;;;;;;;;;;;;;;;;;;;;;;;;;;;;;;;;",
";;;;;;;;;;;;;;;  OOOO ;;;;;;;;;;;;;;;;;;;;;;;;;;;;;;;;;;;;",
";;;;;;;;;;;;;;;  OOOX ;;;;;;;;;;;;;;;;;;;;;;;;;;;;;;;;;;;;",
";;;;;;;;;;;;;;;  XXX      ;;;;;;;;;;;;;;;;;;;;;;;;;;;;;;;;",
";;;;;;;;;;;;;;;;;    XOOO                ;;;;;;;;;;;;;;;;;",
";;;;;;;;;;;;;;;;;    XX    OOOOOOOOOOOOOO  ;;;;;;;;;;;;;;;",
";;;;;;;;;;;;;;;  OOO    XXXXXXOO#O#####OOOO  ;;;;;;;;;;;;;",
";;;;;;;;;;;;;;;  XXX  XXXXOOOOOOOOOOO#OOOOOO  ;;;;;;;;;;;;",
";;;;;;;;;;;;;;;       XXXXXOOOOOOOOO###O#OOOO  ;;;;;;;;;;;",
";;;;;;;;;;;;;;;     XXXXXOOOOOOOOOOO###O#OOOO  ;;;;;;;;;;;",
";;;;;;;;;;;;   ;;;  XXXXXOOOOOOOOOOOOOOOOOOXOX  ;;;;;;;;;;",
";;;;;;;;;;;; @@  ;  XXXXXOOOOOOOOOOOOOOOOOOOOO  ;;;;;;;;;;",
";;;;;;;;;;;; @@  ;  XXXXXXXXXXOXOOOOOOOOOOOXXX  ;;;;;;;;;;",
";;;;;;;;;;;;;  oo   XXXXXXOXOOOOOOOOOOOOOOOOOX  ;;;;;;;;;;",
";;;;;;;;;;;;;  oo   XXXXXXXXXXXXXXXXXXXXXXXXXX  ;;;;;;;;;;",
";;;;;;;;;;;;;       XXXXXXXXXXXXXXXXXXXXXXXXXX  ;;;;;;;;;;",
";;;;;;;;;;;  %%$%$     X                        ;;;;;;;;;;",
";;;;;;;;;;;  %%$%$  XXXXX                       ;;;;;;;;;;",
";;;;;;;;;;;                &&&&&&&&&&&&&&&&&&   ;;;;;;;;;;",
";;;;;;;;;           XX   &&&==================  ;;;;;;;;;;",
";;;;;;;      $$$$$     &&&&&&=========&=&=====  ;;;;;;;;;;",
";;;;;;;   $$$$$$$$     &=======     ======      ;;;;;;;;;;",
";;;;;      $$$$ $    &&&=======&&&&&=     &&&&  ;;;;;;;;;;",
";;;;;   $$$$$$$$$$   & &============= --- ====  ;;;;;;;;;;",
";;;                  & &&&=&==================  ;;;;;;;;;;",
";;;  ooooooooooooooo &&&&============&&&&&====  ;;;;;;;;;;",
";;;  ooooooooooooooo    &&&&&&==============&&  ;;;;;;;;;;",
";;;  oo@@@@@@@@@o@oo  &&&&&&=================&  ;;;;;;;;;;",
";;;  ooo@@@@@@ooooo      &&&&&&&&&&&&&&&&&&&&  ;;;;;;;;;;;",
";;;  @@@@@@@@@@@@o          &&&&&&&&&&&&&&&          ;;;;;",
";;;  o@@@@@@@@@@oo  ..                               ;;;;;",
";;;  @@***@*@@@@@  ++..  oo               oo  ..+  &&  ;;;",
";;;  @@***@*@@@@@  +...      ....      .      .++  &=  ;;;",
";;;  @@@*@@@@@@@@  +++.  oo  ++++      .  oo  ...  &=  ;;;",
";;;  @@****@*@@@@  +++.  @@  ++++++  ++.  @@           ;;;",
";;;  @@@@@@@@@@@@  +++        +++ +  + .  @@         ;;;;;",
";;;  @*@***@@@@@@  +++++++  &= ++ +  + .  @@  ;;;;;;;;;;;;",
";;;  @@@@@@@@@@@@  +++++++  &= ++++  +..  @@  ;;;;;;;;;;;;",
";;;  @@@@@@@@@@@@  +++++++  &= ++++++++.  oo  ;;;;;;;;;;;;",
";;;  @@@@@@@@@@@@o  ......  && ++++.+...  @@  ;;;;;;;;;;;;",
";;;  o@@@@@@o@oooo             +++++++..  oo  ;;;;;;;;;;;;",
";;;  @@@@@@@@@@@ooo      oo   ..........  oo  ;;;;;;;;;;;;",
";;;  ooo@@@@@oooooo                   .       ;;;;;;;;;;;;",
";;;;;  @@@@@@@@oooo      oo  ..   . ....  oo  ;;;;;;;;;;;;",
";;;;;  oooooooooooo                           ;;;;;;;;;;;;",
";;;;;;;                                       ;;;;;;;;;;;;",
";;;;;;;                                       ;;;;;;;;;;;;",
";;;;;;;;;;;;;;;;;;;                           ;;;;;;;;;;;;",
";;;;;;;;;;;;;;;;;;;;;       ;;;;;;;;;;        ;;;;;;;;;;;;",
";;;;;;;;;;;;;;;;;;;;;;;     ;;;;;;;;;;;      ;;;;;;;;;;;;;",
";;;;;;;;;;;;;;;;;;;;;;;    ;;;;;;;;;;;;;     ;;;;;;;;;;;;;",
";;;;;;;;;;;;;;;;;;;;;;;;;;;;;;;;;;;;;;;;    ;;;;;;;;;;;;;;",
";;;;;;;;;;;;;;;;;;;;;;;;;;;;;;;;;;;;;;;;   ;;;;;;;;;;;;;;;",
";;;;;;;;;;;;;;;;;;;;;;;;;;;;;;;;;;;;;;;;;;;;;;;;;;;;;;;;;;",
";;;;;;;;;;;;;;;;;;;;;;;;;;;;;;;;;;;;;;;;;;;;;;;;;;;;;;;;;;"
};
