/* XPM */
static char *_[] = {
/* columns rows colors chars-per-pixel */
"58 58 14 1 ",
"  c #323443",
". c #23787E",
"X c #BD3B53",
"o c #A45B51",
"O c #E86363",
"+ c #36A57C",
"@ c #C58D71",
"# c #F29478",
"$ c #6D718E",
"% c #95A2B0",
"& c #E39B89",
"* c #DEB892",
"= c #FDCAAB",
"- c None",
/* pixels */
"----------------------------------------------------------",
"----------------------------------------------------------",
"----------------------------------------------------------",
"----------------       -----------------------------------",
"----------------  OOOOO     ------------------------------",
"----------------  OOXXX OOO              -----------------",
"----------------  XXX   X    OOOOOOOOOOOO  ---------------",
"------------------        XXXXXO#O#####OOOO  -------------",
"------------------      XXXOOOOOOOOOO#OOOOOO  ------------",
"----------------  OOX   XXXXOOOOOOOO###O#OOOO  -----------",
"----------------  XXX XXXXOOOOOOOOOO###O#OOOO  -----------",
"----------------      XXXXOOOOOOOOOOOOOOOOXOXX  ----------",
"--------------------  XXXXOOOOOOOOOOOOOOOOOOOX  ----------",
"--------------------  XXXXXXXXXOXOOOOOOOOOXXXX  ----------",
"--------------------  XXXXXOXOOOOOOOOOOOOOOOXX  ----------",
"-----------   ------  XXXXXXXXXXXXXXXXXXXXXXXX  ----------",
"----------- @@  ----    X                       ----------",
"----------- @@  ----  XXXX                      ----------",
"------------  oo  --        &&&&&&&&&&&&&&&&&   ----------",
"------------  oo  --  X   &&&==     =&=&=    =  ----------",
"------------      --    &&&&&&==  ========  ==  ----------",
"----------  %%$%$$      &======&&&==     =&&&=  ----------",
"----------  %%$%$$    &&&=====================  ----------",
"----------            & &============&&&======  ----------",
"--------              & &&&=&=================  ----------",
"------      $$$$$     &&&&====================  ----------",
"------   $$$$$$$$$$      &&&&&&=============&&  ----------",
"----      $$$$ $        &&&&&================&  ----------",
"--                         &&&&&&&&&&&&&&&&&&  -----------",
"--  oooooooooooooooo          &&&&&&&&&&&&&   ------------",
"--  oooooooooooooo  ....                       -----------",
"--  oo@@@@@@@@@o@o  ++..  oo              oo   -----------",
"--  ooo@@@@@@oooo  ++...      ...      .     ..  ---------",
"--  @@@@@@@@@@@@o  ++++.  oo  +++      .  oo ++  ---------",
"--  o@@@@@@@@@@oo  ++++.  @@  +++++  ++.  @@ .+  ---------",
"--  @@***@*@@@@@@  ++++.  @@  +++ +  + .  @@ .+  ---------",
"--  @@***@*@@@@@@  ++++   @@  +++ +  + .  @@ .+  ---------",
"--  @@@*@@@@@@@@@  ++++   @@  +++++  +..  @@ .+  ---------",
"--  @@****@*@@@@@  ++++   @@  .++++++++.  @@ .+  ---------",
"--  @@@@@@@@@@@@@         @@  +++++++++.  @@ .+  ---------",
"--  @*@***@@@@@@@         oo  ..+++.+...  oo     ---------",
"--  @@@@@@@@@@@@@  &&&&   @@  .+++++++..  @@     ---------",
"--  @@@@@@@@@@@@@  ====   oo  ..........  oo &&  ---------",
"--  @@@@@@@@@@@@@oo       oo  ..........  oo ==  ---------",
"--  o@@@@@@o@oooooo                   .        -----------",
"--  @@@@@@@@@@@@oooo      oo  ..  . ....  oo   -----------",
"--  ooo@@@@@oooooooo                          ------------",
"----  @@@@@@@@oooooo                          ------------",
"----  oooooooooooooo                          ------------",
"------                                        ------------",
"------                                        ------------",
"--------------------       ------------       ------------",
"--------------------       ------------     --------------",
"--------------------       ------------     --------------",
"--------------------       ------------   ----------------",
"--------------------     ---------------------------------",
"--------------------     ---------------------------------",
"--------------------   -----------------------------------"
};
