/* XPM */
static char *tilesetcave[] = {
/* columns rows colors chars-per-pixel */
"64 64 56 1 ",
"  c #161324",
". c #1C1626",
"X c #1F1827",
"o c #201727",
"O c #211827",
"+ c #231928",
"@ c #2C1E2B",
"# c #2F202C",
"$ c #35232E",
"% c #39252E",
"& c #3E2A2F",
"* c #3D2631",
"= c #3F2832",
"- c #42292F",
"; c #4A2A2F",
": c #402730",
"> c #432932",
", c #4B2D33",
"< c #522F32",
"1 c #4D3135",
"2 c #533235",
"3 c #5C3435",
"4 c #5A3738",
"5 c #5D3A39",
"6 c #623635",
"7 c #663937",
"8 c #693A37",
"9 c #643C39",
"0 c #6B3D39",
"q c #733E38",
"w c #74433B",
"e c #7B443B",
"r c #75483E",
"t c #7B4A3F",
"y c #7C4D40",
"u c #80473D",
"i c #83493E",
"p c #894D3F",
"a c #824F42",
"s c #8A4D40",
"d c #855142",
"f c #8D5443",
"g c #935543",
"h c #945946",
"j c #9B5B46",
"k c #9C5E49",
"l c #9E6049",
"z c #A5634A",
"x c #AC664B",
"c c #AF684C",
"v c #B56C4F",
"b c #B86E4F",
"n c #B86F50",
"m c #BC7150",
"M c #C07452",
"N c None",
/* pixels */
"=,0qwqw8<$o  +$>>**,7scl4$. NNNNNNNNNNNNNNNNNNNNNNNNNNNNNNNNNNNN",
"$%<66886>@.  .@$$%*,3wjg9&O NNNNNNNNNNNNNNNNNNNNNNNNNNNNNNNNNNNN",
"oO@$><<-@.    X+X+%-,4euq<@ NNNNNNNNNNNNNNNNNNNNNNNNNNNNNNNNNNNN",
"oo@@#$$@..@@@@@+..#$$*488<@ NNNNNNNNNNNNNNNNNNNNNNNNNNNNNNNNNNNN",
"#%<<@.o. @;7663;O .Oo@:<,%+.NNNNNNNNNNNNNNNNNNNNNNNNNNNNNNNNNNNN",
"40ew-+   #6qquiq1$.  o@$$$++NNNNNNNNNNNNNNNNNNNNNNNNNNNNNNNNNNNN",
"jlzhq;@  @6qqijzjr$   oo.O$>6wNNNNNNNNNNNNNNNNNNNNNNNNNNNNNNNNNN",
"mmmcg0@ .#<88ezMMj,O.   .@$,7wNNNNNNNNNNNNNNNNNNNNNNNNNNNNNNNNNN",
"nnnbcd%.@%>,;9lmnzq,+  o@**,7uznNNNNNNNNNNNNNNNNNNNNNNNNNNNNNNNN",
"nbbmmh*.$->**2gcnxs6@  O$>*1qgcnNNNNNNNNNNNNNNNNNNNNNNNNNNNNNNNN",
"nbbmmh*X$:>**,qgxxs6#  O$**2gcvnNNNNNNNNNNNNNNNNNNNNNNNNNNNNNNNN",
"vnmbzt$.@%%>,<7ajjq,+..+%>>9gcnnNNNNNNNNNNNNNNNNNNNNNNNNNNNNNNNN",
"bnmzy>+..@$,38qqsq:+ .@%*>4qqgcnNNNNNNNNNNNNNNNNNNNNNNNNNNNNNNNN",
"nvzd,@X  .@;7q886>+ .@*:*,8q8sxnNNNNNNNNNNNNNNNNNNNNNNNNNNNNNNNN",
"mzy,@..   o$6q3>$+..#*:::,8qqaznNNNNNNNNNNNNNNNNNNNNNNNNNNNNNNNN",
"ld1+.  ... +,2>@   .@$$$*,487yzmNNNNNNNNNNNNNNNNNNNNNNNNNNNNNNNN",
"51#.   .#@X.+@OX     XX@*>,,>0kmNNNNNNNNNNNNNNNNNNNNNNNNNNNNNNNN",
"$#.  ..#22#.   X$&&&&$OO#$$$%5kmNNNNNNNNNNNNNNNNNNNNNNNNNNNNNNNN",
"...  .#1dd1@.  $rhhhhr1#+XX+$5kmNNNNNNNNNNNNNNNNNNNNNNNNNNNNNNNN",
"X. .X+%whkw,+ .>dvmmmzr1@X .@1hmNNNNNNNNNNNNNNNNNNNNNNNNNNNNNNNN",
"$@XX#=40ufky$.@,wgvmmvzy1@. X@NNNNNNNNNNNNNNNNNNNNNNNNNNNNNNNNNN",
",=+X$,586why$.@-3whcbmml5$X   NNNNNNNNNNNNNNNNNNNNNNNNNNNNNNNNNN",
"8<@X$>,,,241# .@%3wgcmMz9$+   NNNNNNNNNNNNNNNNNNNNNNNNNNNNNNNNNN",
"q6@X@******$X  X$,7ujzld,@..+$NNNNNNNNNNNNNNNNNNNNNNNNNNNNNNNNNN",
"q6# .+%***=$O  X$,6wae0,@..+,0kmNNNNNNNNNNNNNNNNNNNNNNNNNNNNNNNN",
"q<@   #$$$$#O  O$,6873:@X .$0gcmNNNNNNNNNNNNNNNNNNNNNNNNNNNNNNNN",
",:+   .XXXOX.  O$>,,,>@. X@,fcvnNNNNNNNNNNNNNNNNNNNNNNNNNNNNNNNN",
"*@.o$&&&*$X    O#$$$$@.  +,yzmnvNNNNNNNNNNNNNNNNNNNNNNNNNNNNNNNN",
"o  #rhhhhr$    .++X+X.   $yzvnnnNNNNNNNNNNNNNNNNNNNNNNNNNNNNNNNN",
" +$5zmmmvf-.           .X*yzvnnnNNNNNNNNNNNNNNNNNNNNNNNNNNNNNNNN",
" $wzvmmcgw,@X       .  X@*2yzmnnNNNNNNNNNNNNNNNNNNNNNNNNNNNNNNNN",
" #rjlllfw2-#X  .XXX.   +$**4fxvnNNNNNNNNNNNNNNNNNNNNNNNNNNNNNNNN",
" +$,45541=@+   .@$%@.  o$==1wgxmNNNNNNNNNNNNNNNNNNNNNNNNNNNNNNNN",
"   .@$#$$#.   .#1551#o o@$*>3ezmNNNNNNNNNNNNNNNNNNNNNNNNNNNNNNNN",
"    ..+++.   o@,alka,@. X@%>>9lmNNNNNNNNNNNNNNNNNNNNNNNNNNNNNNNN",
"          oo.#,yzmMz9>@. X@$*5lmNNNNNNNNNNNNNNNNNNNNNNNNNNNNNNNN",
"         .#$#,azvmmzy<:@X X+$5lmNNNNNNNNNNNNNNNNNNNNNNNNNNNNNNNN",
"=*@.  . +@*=1yzmmvxks8<$X  X@1thNNNNNNNNNNNNNNNNNNNNNNNNNNNNNNNN",
"hy1@.  +#$*2dzvmvxgae8,#+  ..@%*NNNNNNNNNNNNNNNNNNNNNNNNNNNNNNNN",
"ml9*@. +$=*5lmmmnzs884,$X       NNNNNNNNNNNNNNNNNNNNNNNNNNNNNNNN",
"mzy2*@.o$==5kmmmMzs7<,>$+     NNNNNNNNNNNNNNNNNNNNNNNNNNNNNNNNNN",
"mvfy<$+o@$$1akklzju7;*:$+   . NNNNNNNNNNNNNNNNNNNNNNNNNNNNNNNNNN",
"mvch4$. .++$1559uue8,*:$+   NNNNNNNNNNNNNNNNNNNNNNNNNNNNNNNNNNNN",
"kkla2@o    .@$*>3883,:$#+   NNNNNNNNNNNNNNNNNNNNNNNNNNNNNNNNNNNN",
"5541$.     ..+$:>,,,>*@.    NNNNNNNNNNNNNNNNNNNNNNNNNNNNNNNNNNNN",
"**:$.        +@$$$$$$@. X++XNNNNNNNNNNNNNNNNNNNNNNNNNNNNNNNNNNNN",
"***$+  ..    .+++++++o .@$$@+ NNNNNNNNNNNNNNNNNNNNNNNNNNNNNNNNNN",
"=*$$.   ..+++.        @$><42$@NNNNNNNNNNNNNNNNNNNNNNNNNNNNNNNNNN",
":*+o   o@$$$$#o      +<66qgf8<NNNNNNNNNNNNNNNNNNNNNNNNNNNNNNNNNN",
"$#..@@@$;;,,>*@..  ..$6qqsccgsNNNNNNNNNNNNNNNNNNNNNNNNNNNNNNNNNN",
"+..+;3336776,*$#X  X@>8qqsxncxcnNNNNNNNNNNNNNNNNNNNNNNNNNNNNNNNN",
"   @3qsssuq8,*:$X  +$,300ejcnnnnNNNNNNNNNNNNNNNNNNNNNNNNNNNNNNNN",
"   @3ujxxjs8,**$+  X$>,28qegxnnnNNNNNNNNNNNNNNNNNNNNNNNNNNNNNNNN",
" .+>0gcncje82,>$+  +$==>3qegcnnnNNNNNNNNNNNNNNNNNNNNNNNNNNNNNNNN",
" +>qgcvcgeqq03,$X  +$>==,9gcnnnnNNNNNNNNNNNNNNNNNNNNNNNNNNNNNNNN",
" $0gcMncge0883,$X  +@$***2akkzcnNNNNNNNNNNNNNNNNNNNNNNNNNNNNNNNN",
" *scmmmncg5,,,:$+  .X+*==>244wzbNNNNNNNNNNNNNNNNNNNNNNNNNNNNNNNN",
" *axxllkks4***>$+    X@$===*$1hMNNNNNNNNNNNNNNNNNNNNNNNNNNNNNNNN",
" @0say9544>*=:=$X  .  .@%==$+@NNNNNNNNNNNNNNNNNNNNNNNNNNNNNNNNNN",
" @<773>***=**$$#X X+$*@@$%$#X NNNNNNNNNNNNNNNNNNNNNNNNNNNNNNNNNN",
" +*,,>=*****++oo .@,ys0;@XXXNNNNNNNNNNNNNNNNNNNNNNNNNNNNNNNNNNNN",
" .@$**==***#o  .X+$9zcp3@   NNNNNNNNNNNNNNNNNNNNNNNNNNNNNNNNNNNN",
"  o@**=***@.   .@**5kcp3@   NNNNNNNNNNNNNNNNNNNNNNNNNNNNNNNNNNNN",
".  .$==**$o  . o$==5kzp3@  .NNNNNNNNNNNNNNNNNNNNNNNNNNNNNNNNNNNN"
};
