/* XPM */
static char *idle4[] = {
/* columns rows colors chars-per-pixel */
"64 64 14 1 ",
"  c #090A14",
". c #202E37",
"X c #752438",
"o c #A53030",
"O c #884B2B",
"+ c #BE772B",
"@ c #C09473",
"# c #C29776",
"$ c #A23E8C",
"% c #819796",
"& c #D7B594",
"* c #C7CFCC",
"= c #EBEDE9",
"- c None",
/* pixels */
"----------------------------------------------------------------",
"----------------------------------------------------------------",
"----------------------------------------------------------------",
"----------------------------------------------------------------",
"----------------------------------------------------------------",
"----------------------------------------------------------------",
"----------------------------------------------------------------",
"---------------------------------------OOO++--------------------",
"-------------------------------------OOOOO+++-------------------",
"------------------------------------OOO     ++------------------",
"-----------------------------------OO        ++-----------------",
"----------------------------------OO          ++----------------",
"---------------------------------OO            ++---------------",
"------------------------------OOOO              ++--------------",
"--------------------------OOOOOOO                +++------------",
"-------------------------OOOOO                     ++-----------",
"-------------------------O                           -----------",
"-------------------------                            -----------",
"-------------------------                            -----------",
"--------------------------                          ------------",
"-----------*---------------                         ------------",
"----------**----------------      oooooooooooo     -------------",
"----------**------------------   oooooooooooooo   --------------",
"---------***-------------------XX@@@@@@@@@@@@@@-----------------",
"---------***-------------------XX@@@@@@@@@@@@@#-----------------",
"--------****-------------------XX@@......@@....-----------------",
"--------****-------------------XX&&@@===@@$@==@-----------------",
"--------****--------------------X&&&&@@@@$$@@@&-----------------",
"--------*****-------------------X.&&&&&&&$$$&&&-----------------",
"--------*****-------------------X.&&&&&&&$$$&&.-----------------",
"--------*****--------------------..&&&&&&$$$&&.-----------------",
"--------******-------------------....&&&&&&&&..-----------------",
"--------******-------------------..............-----------------",
"--------*******----------------oo.......@@&&...-----------------",
"--------*******--------------oooo..............oo---------------",
"---------******-------------oooooo............oooo--------------",
"---------*******-----------oooooooo...........ooooo-------------",
"----------*******----------XXoooooooo.........ooooo-------------",
"-----------*******---------XXXoooooooo.......oooooX-------------",
"------------*******-------XXXXXooooooooooXooooooooXX------------",
"-------------*******------XXXXXooooooooooXoooooooXXX------------",
"--------------*******----XXXXXooooooooooo.oooooooXXXX-----------",
"---------------*******---XXXX-ooooooooooo.oooooooXXXX-----------",
"----------------*******%%%%XX--ooooooooo..oooooooXXXXX----------",
"------------------********%%----oooooooo..oooooooXXXXX----------",
"--------------------*******%----oooooooo...ooooo--@@@-----------",
"---------------------%*****%----oooooooo...ooooo--@@@-----------",
"---------------------%%%%%%%----oooooooo...ooooo--@@@-----------",
"----------------------%%%%%-----ooooooo....oooo-----------------",
"-------------------------------oooooooo....oooo-----------------",
"-------------------------------oooooooOOO++oooo-----------------",
"-------------------------------oooooooOOO++oooo-----------------",
"------------------------------ooooooo      ooooo----------------",
"------------------------------ooooooo   X   oooo----------------",
"-----------------------------ooooooo   XX   ooooo---------------",
"-----------------------------ooooooo   XXX  ooooo---------------",
"-----------------------------oooooo   XXXX  ooooo---------------",
"----------------------------ooooooo   XXXX   ooooo--------------",
"----------------------------oooooo   XXXXXX  ooooo--------------",
"----------------------------oooooo  -------  ooooo--------------",
"----------------------------------------------------------------",
"----------------------------------------------------------------",
"----------------------------------------------------------------",
"----------------------------------------------------------------"
};
