/* XPM */
static char *idle1[] = {
/* columns rows colors chars-per-pixel */
"64 64 14 1 ",
"  c #090A14",
". c #202E37",
"X c #752438",
"o c #A53030",
"O c #884B2B",
"+ c #BE772B",
"@ c #C09473",
"# c #C29776",
"$ c #A23E8C",
"% c #819796",
"& c #D7B594",
"* c #C7CFCC",
"= c #EBEDE9",
"- c None",
/* pixels */
"----------------------------------------------------------------",
"----------------------------------------------------------------",
"----------------------------------------------------------------",
"----------------------------------------------------------------",
"----------------------------------------------------------------",
"------------------------------------------OOO++-----------------",
"----------------------------------------OOOOO+++----------------",
"---------------------------------------OOO     ++---------------",
"--------------------------------------OO        ++--------------",
"-------------------------------------OO          ++-------------",
"------------------------------------OO            ++------------",
"---------------------------------OOOO              ++-----------",
"-----------------------------OOOOOOO                +++---------",
"----------------------------OOOOO                     ++--------",
"-----------------*----------O                           --------",
"----------------**----------                            --------",
"---------------***----------                            --------",
"---------------***-----------                          ---------",
"--------------****------------                         ---------",
"--------------****-------------      oooooooooooo     ----------",
"--------------*****--------------   oooooooooooooo   -----------",
"-------------******-----------------@@@@@@@@@@@@@@--------------",
"-------------******-----------------@@@@@@@@@@@@@@--------------",
"-------------******-----------------@@......@@....--------------",
"-------------******-----------------&&@@===@@$@==#--------------",
"-------------*******----------------&&&&@@@@$$@@@&--------------",
"-------------*******----------------.&&&&&&&$$$&&&--------------",
"-------------*******----------------.&&&&&&&$$$&&.--------------",
"-------------*******----------------..&&&&&&$$$&&.--------------",
"-------------********---------------....&&&&&&&&..--------------",
"--------------*******-------------oo..............--------------",
"--------------*******-----------oooo.......@@&&...oo------------",
"---------------*******---------ooooo..............ooo-----------",
"---------------*******---------oooooo............ooooo----------",
"----------------*******-------oooooooo...........ooooo----------",
"-----------------******-------XXoooooooo.........ooooo----------",
"------------------******-----XXXXoooooooo.......oooooX----------",
"-------------------*****-----XXXXXooooooooooXooooooooXX---------",
"--------------------*****---XXXXXXooooooooooXoooooooXXX---------",
"---------------------*****--XXXXXoooooooooooXoooooooXXXX--------",
"----------------------*****%%XXX-ooooooooooo.oooooooXXXX--------",
"-----------------------*****%%XX--oooooooooo.oooooooXXXXX-------",
"------------------------*****%X---ooooooooo..oooooooXXXXX-------",
"------------------------%****%-----oooooooo..oooooo--X@@@-------",
"------------------------%%%%%%------ooooooo...ooooo---@@@-------",
"-------------------------%%%%--------oooooo...ooooo---@@@-------",
"-------------------------------------ooooo....oooo--------------",
"------------------------------------oooooo....oooo--------------",
"------------------------------------oooooOOO++oooo--------------",
"-----------------------------------ooooooOOO++oooo--------------",
"-----------------------------------oooooo     ooooo-------------",
"----------------------------------oooooo      ooooo-------------",
"----------------------------------oooooo       oooo-------------",
"---------------------------------oooooo    X   oooo-------------",
"---------------------------------oooooo   XX   ooooo------------",
"--------------------------------oooooo    XXX  ooooo------------",
"--------------------------------oooooo   XXXX   oooo------------",
"--------------------------------oooo-    ----   oooo------------",
"-------------------------------------   ------  ----------------",
"------------------------------------   -------   ---------------",
"----------------------------------------------------------------",
"----------------------------------------------------------------",
"----------------------------------------------------------------",
"----------------------------------------------------------------"
};
