/* XPM */
static char *idle3[] = {
/* columns rows colors chars-per-pixel */
"64 64 14 1 ",
"  c #090A14",
". c #202E37",
"X c #752438",
"o c #A53030",
"O c #884B2B",
"+ c #BE772B",
"@ c #C09473",
"# c #C29776",
"$ c #A23E8C",
"% c #819796",
"& c #D7B594",
"* c #C7CFCC",
"= c #EBEDE9",
"- c None",
/* pixels */
"----------------------------------------------------------------",
"----------------------------------------------------------------",
"----------------------------------------------------------------",
"----------------------------------------------------------------",
"----------------------------------------------------------------",
"----------------------------------------------------------------",
"----------------------------------------------------------------",
"----------------------------------------OOO++-------------------",
"--------------------------------------OOOOO+++------------------",
"-------------------------------------OOO     ++-----------------",
"------------------------------------OO        ++----------------",
"-----------------------------------OO          ++---------------",
"----------------------------------OO            ++--------------",
"-------------------------------OOOO              ++-------------",
"---------------------------OOOOOOO                +++-----------",
"--------------------------OOOOO                     ++----------",
"-------------*------------O                           ----------",
"------------**------------                            ----------",
"------------***-----------                            ----------",
"------------***------------                          -----------",
"-----------****-------------                         -----------",
"-----------****--------------      oooooooooooo     ------------",
"-----------*****---------------   oooooooooooooo   -------------",
"----------******----------------XX@@@@@@@@@@@@@@----------------",
"----------******----------------XX@@@@@@@@@@@@@#----------------",
"----------******---------------X-X@@......@@....----------------",
"----------******---------------X-X&&@@===@@$@==@----------------",
"----------*******--------------X-X&&&&@@@@$$@@@&----------------",
"----------*******---------------X-.&&&&&&&$$$&&&----------------",
"----------*******---------------X-.&&&&&&&$$$&&.----------------",
"----------********----------------..&&&&&&$$$&&.----------------",
"-----------*******--------------oo....&&&&&&&&..----------------",
"-----------********-----------oooo..............oo--------------",
"------------*******----------ooooo.......@@&&...ooo-------------",
"------------*******----------ooooo..............oooo------------",
"-------------*******--------XXooooo............ooooo------------",
"--------------******--------XXXooooo...........ooooX------------",
"---------------******------XXXXXoooooo.........ooooX------------",
"----------------******-----XXXXXooooooo.......ooooXXX-----------",
"-----------------******---XXXXXoooooooooooXoooooooXXX-----------",
"------------------******--XXXXXoooooooooooXoooooooXXXX----------",
"-------------------******-XXXX--oooooooooo.oooooooXXXX----------",
"--------------------******%%XX--oooooooooo.oooooooXXXXX---------",
"---------------------******%%----oooooooo..oooooo-XXXXX---------",
"----------------------******%----oooooooo..oooooo--X@@@---------",
"-----------------------*****%-----ooooooo...ooooo---@@@---------",
"------------------------%%%%%-----ooooooo...ooooo---@@@---------",
"---------------------------------ooooooo....oooo----------------",
"---------------------------------oooooooOO++oooo----------------",
"--------------------------------oooooooOOO++oooo----------------",
"--------------------------------oooooooOOO++oooo----------------",
"--------------------------------oooooo      ooooo---------------",
"-------------------------------ooooooo       oooo---------------",
"-------------------------------oooooo    X   oooo---------------",
"------------------------------ooooooo   XX   ooooo--------------",
"------------------------------oooooo    XXX  ooooo--------------",
"------------------------------oooooo   XXXX   oooo--------------",
"-----------------------------oooooo    XXXX   ooooo-------------",
"-----------------------------oooooo   ------  ooooo-------------",
"----------------------------------   -------   -----------------",
"----------------------------------------------------------------",
"----------------------------------------------------------------",
"----------------------------------------------------------------",
"----------------------------------------------------------------"
};
