/* XPM */
static char *idle5[] = {
/* columns rows colors chars-per-pixel */
"64 64 14 1 ",
"  c #090A14",
". c #202E37",
"X c #752438",
"o c #343C41",
"O c #A53030",
"+ c #884B2B",
"@ c #BE772B",
"# c #C09473",
"$ c #A23E8C",
"% c #819796",
"& c #D7B594",
"* c #C7CFCC",
"= c #EBEDE9",
"- c None",
/* pixels */
"----------------------------------------------------------------",
"----------------------------------------------------------------",
"----------------------------------------------------------------",
"----------------------------------------------------------------",
"----------------------------------------------------------------",
"----------------------------------------------------------------",
"--------------------------------------+++@@---------------------",
"------------------------------------+++++@@@--------------------",
"-----------------------------------+++     @@-------------------",
"----------------------------------++        @@------------------",
"---------------------------------++          @@-----------------",
"--------------------------------++            @@----------------",
"-----------------------------++++              @@---------------",
"-------------------------+++++++                @@@-------------",
"------------------------+++++                     @@------------",
"------------*-----------+                           ------------",
"-----------**-----------                            ------------",
"-----------**-----------                            ------------",
"----------***------------                          -------------",
"----------***-------------                         -------------",
"---------****--------------      OOOOOOOOOOOO     --------------",
"---------****----------------   OOOOOOOOOOOOOO   ---------------",
"---------*****-----------------X##############------------------",
"--------******-----------------X##############------------------",
"--------******-----------------X##......##...o------------------",
"--------******-----------------X&&##===##$#==#------------------",
"--------******-----------------X&&&&####$$###&------------------",
"--------*******-----------------.&&&&&&&$$$&&&------------------",
"--------*******-----------------.&&&&&&&$$$&&.------------------",
"--------*******-----------------..&&&&&&$$$&&.------------------",
"--------********----------------....&&&&&&&&..------------------",
"---------*******--------------OO..............------------------",
"---------********-----------OOOO.......##&&...OO----------------",
"----------*******----------OOOOO..............OOO---------------",
"----------*******---------OOOOOOO............OOOOO--------------",
"-----------*******--------XXOOOOOO...........OOOOO--------------",
"------------******-------XXXXOOOOOOO.........OOOOX--------------",
"-------------******------XXXXXOOOOOOO.......OOOOOXX-------------",
"--------------******-----XXXXXOOOOOOOOOOXOOOOOOOXXX-------------",
"---------------******---XXXXXOOOOOOOOOOOXOOOOOOOXXXX------------",
"----------------******--XXXX-OOOOOOOOOOO.OOOOOOOXXXX------------",
"-----------------******%%%XX--OOOOOOOOOO.OOOOOOOXXXXX-----------",
"------------------******%%%---OOOOOOOOO..OOOOOOOXXXXX-----------",
"--------------------*****%%----OOOOOOOO..OOOOOO--X###-----------",
"---------------------%***%%----OOOOOOOO...OOOOO---###-----------",
"---------------------%%%%%%-----OOOOOOO...OOOOO---###-----------",
"----------------------%%%%------OOOOOO....OOOOO-----------------",
"-------------------------------OOOOOOO....OOOO------------------",
"-------------------------------OOOOOO+++@@OOOO------------------",
"------------------------------OOOOOOO+++@@OOOO------------------",
"------------------------------OOOOOOO     OOOO------------------",
"------------------------------OOOOOO      OOOOO-----------------",
"-----------------------------OOOOOOO       OOOO-----------------",
"-----------------------------OOOOOO    X   OOOO-----------------",
"----------------------------OOOOOOO   XX   OOOOO----------------",
"----------------------------OOOOOO    XXX  OOOOO----------------",
"----------------------------OOOOOO   XXXX   OOOO----------------",
"---------------------------OOOOOO    XXXX   OOOOO---------------",
"---------------------------OOOOOO   ------  OOOOO---------------",
"--------------------------------   -------   -------------------",
"----------------------------------------------------------------",
"----------------------------------------------------------------",
"----------------------------------------------------------------",
"----------------------------------------------------------------"
};
