/* XPM */
static char *idle2[] = {
/* columns rows colors chars-per-pixel */
"64 64 14 1 ",
"  c #090A14",
". c #202E37",
"X c #752438",
"o c #343C41",
"O c #A53030",
"+ c #884B2B",
"@ c #BE772B",
"# c #C09473",
"$ c #A23E8C",
"% c #819796",
"& c #D7B594",
"* c #C7CFCC",
"= c #EBEDE9",
"- c None",
/* pixels */
"----------------------------------------------------------------",
"----------------------------------------------------------------",
"----------------------------------------------------------------",
"----------------------------------------------------------------",
"----------------------------------------------------------------",
"----------------------------------------------------------------",
"-----------------------------------------+++@@------------------",
"---------------------------------------+++++@@@-----------------",
"--------------------------------------+++     @@----------------",
"-------------------------------------++        @@---------------",
"------------------------------------++          @@--------------",
"-----------------------------------++            @@-------------",
"--------------------------------++++              @@------------",
"----------------------------+++++++                @@@----------",
"----------------*----------+++++                     @@---------",
"---------------**----------+                           ---------",
"--------------***----------                            ---------",
"--------------***----------                            ---------",
"-------------****-----------                          ----------",
"-------------****------------                         ----------",
"-------------*****------------      OOOOOOOOOOOO     -----------",
"------------******--------------   OOOOOOOOOOOOOO   ------------",
"------------******---------------XX##############---------------",
"------------******---------------XX##############---------------",
"------------******---------------XX##......##...o---------------",
"------------*******--------------XX&&##===##$#==#---------------",
"------------*******---------------X&&&&####$$###&---------------",
"------------*******---------------X.&&&&&&&$$$&&&---------------",
"------------*******---------------X.&&&&&&&$$$&&.---------------",
"------------********---------------..&&&&&&$$$&&.---------------",
"-------------*******-------------OO....&&&&&&&&..---------------",
"-------------*******-----------OOOO..............OO-------------",
"--------------*******---------OOOOO.......##&&...OOO------------",
"--------------*******---------OOOOO..............OOOO-----------",
"---------------*******-------OOOOOOO............OOOOO-----------",
"----------------******-------XXOOOOOO...........OOOOO-----------",
"-----------------******-----XXXXOOOOOOO.........OOOOX-----------",
"------------------*****-----XXXXXOOOOOOO.......OOOOOXX----------",
"-------------------*****---XXXXXXOOOOOOOOOOXOOOOOOOXXX----------",
"--------------------*****--XXXXXOOOOOOOOOOOXOOOOOOOXXXX---------",
"---------------------*****%%XXX-OOOOOOOOOOO.OOOOOOOXXXX---------",
"----------------------*****%%XX--OOOOOOOOOO.OOOOOOOXXXXX--------",
"-----------------------*****%X---OOOOOOOOO..OOOOOOOXXXXX--------",
"-----------------------%****%-----OOOOOOOO..OOOOOO--X###--------",
"-----------------------%%%%%%------OOOOOOO...OOOOO---###--------",
"------------------------%%%%--------OOOOOO...OOOOO---###--------",
"------------------------------------OOOOO....OOOO---------------",
"-----------------------------------OOOOOO....OOOO---------------",
"-----------------------------------OOOOO+++@@OOOO---------------",
"----------------------------------OOOOOO+++@@OOOO---------------",
"----------------------------------OOOOOO     OOOOO--------------",
"---------------------------------OOOOOO      OOOOO--------------",
"---------------------------------OOOOOO       OOOO--------------",
"--------------------------------OOOOOO    X   OOOO--------------",
"--------------------------------OOOOOO   XX   OOOOO-------------",
"-------------------------------OOOOOO    XXX  OOOOO-------------",
"-------------------------------OOOOOO   XXXX   OOOO-------------",
"-------------------------------OOOO-    ----   OOOO-------------",
"------------------------------------   ------  -----------------",
"-----------------------------------   -------   ----------------",
"----------------------------------------------------------------",
"----------------------------------------------------------------",
"----------------------------------------------------------------",
"----------------------------------------------------------------"
};
