/* XPM */
static char *bubble_1[] = {
/* columns rows colors chars-per-pixel */
"16 16 22 1 ",
"  c #00B7FF",
". c #02B9FF",
"X c #03B9FF",
"o c #06BBFF",
"O c #09BDFE",
"+ c #09BDFF",
"@ c #09BEFF",
"# c #0BBFFF",
"$ c #0CBFFE",
"% c #13C4FE",
"& c #16C7FE",
"* c #1FCCFE",
"= c #38DBFD",
"- c #48DFFD",
"; c #89F7FD",
": c #88FFFC",
"> c #B9FEFD",
", c #C6FEFD",
"< c #C9FCFE",
"1 c #DAFEFE",
"2 c #FFFEFE",
"3 c None",
/* pixels */
"333333$OOo333333",
"3333*333333X3333",
"33%-;33333333X33",
"33=<2>3333333333",
"3&3,1:3333333333",
"3333333333333333",
"O333333333333333",
"O33333333333333X",
"o33333333333333 ",
"X333333333333333",
"3333333333333333",
"3333333333333333",
"3333333333333333",
"33 3333333333 33",
"3333333333333333",
"3333333  3333333"
};
