/* XPM */
static char *bubble_2[] = {
/* columns rows colors chars-per-pixel */
"16 16 13 1 ",
"  c #57E2FE",
". c #58E4FE",
"X c #5DE8FE",
"o c #62EEFD",
"O c #6FF1FD",
"+ c #88F9FC",
"@ c #88FFFC",
"# c #ADFBFD",
"$ c #BBFBFD",
"% c #C2FBFD",
"& c #D1FCFE",
"* c #FFFEFE",
"= c None",
/* pixels */
"================",
"====X===========",
"== O+===========",
"==o%*#==========",
"=.=$&@==========",
"================",
"================",
"================",
"================",
"================",
"================",
"================",
"================",
"================",
"================",
"================"
};
