/* XPM */
static char *bubble_3[] = {
/* columns rows colors chars-per-pixel */
"16 16 69 1 ",
"  c #0797E4",
". c #0D97E1",
"X c #0498E7",
"o c #0F99E2",
"O c #0B99E5",
"+ c #069BEB",
"@ c #079CEC",
"# c #0A9BE9",
"$ c #099BEA",
"% c #0E9CE8",
"& c #0B9FED",
"* c #0D9FED",
"= c #0F9FEC",
"- c #139AE2",
"; c #119BE6",
": c #139CE5",
"> c #139CE6",
", c #139DE7",
"< c #139EE8",
"1 c #129EE9",
"2 c #139EE9",
"3 c #139FEA",
"4 c #14A0EB",
"5 c #10A0ED",
"6 c #13A0EC",
"7 c #0EA1F0",
"8 c #12A3F0",
"9 c #14A4F2",
"0 c #14A5F3",
"q c #14A6F5",
"w c #14A7F6",
"e c #14A7F7",
"r c #14A8F7",
"t c #1EA8F1",
"y c #15A9F8",
"u c #15A9F9",
"i c #15ABFC",
"p c #3AAAE6",
"a c #25ACF4",
"s c #21ADF8",
"d c #2EB3FA",
"f c #39B1F1",
"g c #45B9F8",
"h c #57BFF5",
"j c #55BEF6",
"k c #55C2FA",
"l c #65C4F6",
"z c #67CBFE",
"x c #75CDFA",
"c c #7ACDFA",
"v c #80CFFA",
"b c #89D6FE",
"n c #96DBFD",
"m c #A1DFFE",
"M c #A7DFFC",
"N c #A6E0FE",
"B c #BAE6FE",
"V c #BCE7FE",
"C c #BDE9FF",
"Z c #CEEDFD",
"A c #E0F6FF",
"S c #E7F8FF",
"D c #EAF9FF",
"F c #F7FCFE",
"G c #F6FDFF",
"H c #F9FCFE",
"J c #FEFFFF",
"K c white",
"L c None",
/* pixels */
"LLLLLKSBNNLLLLLL",
"LLLKZj&$$*adLLLL",
"LLKv+pLLLLL1qLLL",
"LKcXFHLLLLLL>qLL",
"LB@LKLLLLLLLL1rL",
"LgoLLLLLLLLLLL0L",
"C7LLLLLLLLLLLL4L",
"b*LLLLLLLLLLLL<L",
"z5LLLLLLLLLLLL<L",
"L8LLLLLLLLLLLL3L",
"Le-LLLLLLLLLLLtL",
"Li4LLLLLLLLLLOxL",
"LLu<LLLLLLLL.hAL",
"LLLq3LLLLLL lDLL",
"LLLLu03<;%fNFLLL",
"LLLLLLLsknLLLLLL"
};
