/* XPM */
static char *bubble_4[] = {
/* columns rows colors chars-per-pixel */
"16 16 15 1 ",
"  c #87DDFF",
". c #8BDFFF",
"X c #8FE0FF",
"o c #90E0FF",
"O c #92E0FF",
"+ c #A5E5FF",
"@ c #A7E7FF",
"# c #B5EAFF",
"$ c #B8EBFF",
"% c #C0EEFF",
"& c #CAF0FF",
"* c #DDF6FF",
"= c #E1F6FF",
"- c white",
"; c None",
/* pixels */
";;;;;;;;;;;;;;;;",
";;;;X;;;;;;;;;;;",
";;O $@;;;;;;;;;;",
";;.#-&;;;;;;;;;;",
";O;%*;;;;;;;;;;;",
";;@;;;;;;;;;;;;;",
";;=;;;;;;;;;;;;;",
";;;;;;;;;;;;;;;;",
";;;;;;;;;;;;;;;;",
";;;;;;;;;;;;;;;;",
";;;;;;;;;;;;;;;;",
";;;;;;;;;;;;;;;;",
";;;;;;;;;;;;;;;;",
";;;;;;;;;;;;;;;;",
";;;;;;;;;;;;;;;;",
";;;;;;;;;;;;;;;;"
};
