/* XPM */
static char *bubble_6[] = {
/* columns rows colors chars-per-pixel */
"16 16 4 1 ",
"  c #3CCEFF",
". c #FEFEFE",
"X c #FFFFFE",
"o c None",
/* pixels */
"oooooo    oooooo",
"oooo oooooo oooo",
"oo oooooooooo oo",
"oooXXooooooooooo",
"o oXoooooooooo o",
"oooooooooooooooo",
" oooooooooooooo ",
" oooooooooooooo ",
" oooooooooooooo ",
" oooooooooooooo ",
"oooooooooooooooo",
"o oooooooooooo o",
"oooooooooooooooo",
"oo oooooooooo oo",
"oooo oooooo oooo",
"oooooo    oooooo"
};
