/* XPM */
static char *bubble_7[] = {
/* columns rows colors chars-per-pixel */
"16 16 7 1 ",
"  c #3BCEFF",
". c #3CCEFF",
"X c #3DCEFF",
"o c #FDFEFE",
"O c #FEFEFE",
"+ c #FFFEFE",
"@ c None",
/* pixels */
"@@@@@@@..@@@@@@@",
"@@@@.@@@@@@.@@@@",
"@@ @@@@@@@@@@.@@",
"@@@++@@@@@@@@@@@",
"@.@+@@@@@@@@@@.@",
"@@@@@@@@@@@@@@@@",
"@@@@@@@@@@@@@@@@",
".@@@@@@@@@@@@@@.",
".@@@@@@@@@@@@@@.",
"@@@@@@@@@@@@@@@@",
"@@@@@@@@@@@@@@@@",
"@.@@@@@@@@@@@@.@",
"@@@@@@@@@@@@@@@@",
"@@.@@@@@@@@@@.@@",
"@@@@.@@@@@@.@@@@",
"@@@@@@@..@@@@@@@"
};
