/* XPM */
static char *chest_open[] = {
/* columns rows colors chars-per-pixel */
"32 32 13 1 ",
"  c #21181B",
". c #2E222D",
"X c #3F2832",
"o c #743F39",
"O c #3A4466",
"+ c #464F6D",
"@ c #BE9114",
"# c #EEB619",
"$ c #5A6988",
"% c #8B9BB4",
"& c #C8BF88",
"* c white",
"= c None",
/* pixels */
"================================",
"================================",
"==============    ==============",
"===========   %%%*   ===========",
"========== %%%%%%%%** ==========",
"                                ",
" OOOOOOOOOOOOOOOOOOOOOOOOOOOOOO ",
" OXXXXXXXXXXXXXXXXXXXXXXXXXXXXO ",
" O...XXXXXXXXXXXXXXXXXXXXXX...O ",
" OXXX......................XXXO ",
" O.XXXXXXXXXXXXXXXXXXXXXXXXXX.O ",
" O .......................... O ",
" O                            O ",
" O............................O ",
" O                            O ",
" O .......................... O ",
" O.XXXXXXXXXX@#*XXXXXXXXXXXXX.O ",
" OXXX.@**@#**###*......@#*.XXXO ",
" O.@#*##*@@###**@@#*X@*#@#*...O ",
"                                ",
" OOOOOOOOO+          +OOOOOOOOO ",
" &%+OOOOO+%+        +%+OOOOO+%& ",
" $+%+.X.+%+OO      OO+%+.X.+%+$ ",
" $$+%+.+%+O$$      $OO+%+.+%+$$ ",
" %%.+%+%+.%%%.    .%%%.+%+%+.%% ",
" &$X.+++.X$$$X....X$$$X.+++.X$& ",
" O$oX...Xo$$$oXooXo$$$oX...Xo$O ",
" O$XXXXXXX$$$XXXXXX$$$XXXXXXX$O ",
" &OOO$O$OO&$$OO$$O$&OOOO$$O$OO& ",
" OOOOOOOOOOOOOOOOOOOOOOOOOOOOOO ",
"                                ",
"================================"
};
