/* XPM */
static char *treasure[] = {
/* columns rows colors chars-per-pixel */
"32 32 11 1 ",
"  c #21181B",
". c #2E222D",
"X c #3F2832",
"o c #743F39",
"O c #3A4466",
"+ c #464F6D",
"@ c #5A6988",
"# c #8B9BB4",
"$ c #C8BF88",
"% c white",
"& c None",
/* pixels */
"&&&&&&&&&&&&&&&&&&&&&&&&&&&&&&&&",
"&&&&&&&&&&&&&&&&&&&&&&&&&&&&&&&&",
"&&&&&&&&&&&&&&&&&&&&&&&&&&&&&&&&",
"&&&&&&&&&&&&&&&&&&&&&&&&&&&&&&&&",
"&&&&&&&&&&&&&&&&&&&&&&&&&&&&&&&&",
"&&&&&&&&&&&&&&&&&&&&&&&&&&&&&&&&",
"&&&&&&&&&&&&&&&&&&&&&&&&&&&&&&&&",
"&&&&&&&&&&&&&&&&&&&&&&&&&&&&&&&&",
"&&&&&&&&&&&&&&&&&&&&&&&&&&&&&&&&",
"                                ",
" @@+#ooooo@@@oooooo@@@ooooo#+@@ ",
" %%..%#oXo%%%oXooXo%%%XoX#%..%% ",
" %%o.#%XoX%%%XoXXoX%%%oXX%#.o%% ",
" ##XX..#+X###.    .###X+#..XX## ",
" @@XXX.+#X@@@ #%%# O@@X#+.XXX@@ ",
" @@.XXX..#+O %%%%%% O+#..XXX.@@ ",
" $@......+# %  %%  % #+......@$ ",
" @@@@@@@@OO #  ##  # OOO@@@@@@@ ",
" OOOOOOOOO$ @@@@@@@@ $OOOOOOOOO ",
"            @ @  @ #            ",
" OOOOOOOOO+ #      @ +OOOOOOOOO ",
" $#+OOOOO+#+ @ @@ @ +#+OOOOO+#$ ",
" @+#+.X.+#+OO #@@# OO+#+.X.+#+@ ",
" @@+#+.+#+O@@ @@@@ @OO+#+.+#+@@ ",
" ##.+#+#+.###.    .###.+#+#+.## ",
" $@X.+++.X@@@X....X@@@X.+++.X@$ ",
" O@oX...Xo@@@oXooXo@@@oX...Xo@O ",
" O@XXXXXXX@@@XXXXXX@@@XXXXXXX@O ",
" $OOO@O@OO$@@OO@@O@$OOOO@@O@OO$ ",
" OOOOOOOOOOOOOOOOOOOOOOOOOOOOOO ",
"                                ",
"&&&&&&&&&&&&&&&&&&&&&&&&&&&&&&&&"
};

