/* XPM */
static char *_[] = {
/* columns rows colors chars-per-pixel */
"96 108 2 1 ",
"  c white",
". c None",
/* pixels */
"................................................................................................",
"................................................................................................",
"................................................................................................",
"................................................................................................",
"................................................................................................",
"................................................................................................",
"................................................................................................",
"................................................................................................",
"................................................................................................",
"................................................................................................",
"................................................................................................",
"................................................................................................",
"................................................................................................",
"................................................................................................",
"................................................................................................",
"................................................................................................",
"................................................................................................",
"................................................................................................",
"................................................................................................",
"................................................................................................",
"................................................................................................",
"................................................................................................",
"................................................................................................",
"................................................................................................",
"................................................................................................",
"................................................................................................",
"...........................................            .........................................",
"......................................                      ....................................",
"...................................                            .................................",
".................................                                ...............................",
"...............................                                    .............................",
".............................                                        ...........................",
"............................                                          ..........................",
"...........................                                            .........................",
".........................                                                .......................",
"........................                                                  ......................",
".......................                                                    .....................",
"......................                                                      ....................",
".....................                                                        ...................",
"....................                                                          ..................",
"....................                                                          ..................",
"...................                                                            .................",
"..................                                                              ................",
".................                                                                ...............",
".................                                                                ...............",
"................                                                                  ..............",
"................                                                                  ..............",
"...............                                                                    .............",
"...............                                                                    .............",
"..............                                                                      ............",
"..............                                                                      ............",
"..............                                                                      ............",
".............                                                                        ...........",
".............                                                                        ...........",
".............                                                                        ...........",
".............                                                                        ...........",
".............                                                                        ...........",
"............                                                                          ..........",
"............                                                                          ..........",
"............                                                                          ..........",
"............                                                                          ..........",
"............                                                                          ..........",
"............                                                                          ..........",
"............                                                                          ..........",
"............                                                                          ..........",
"............                                                                          ..........",
"............                                                                          ..........",
"............                                                                          ..........",
"............                                                                          ..........",
".............                                                                        ...........",
".............                                                                        ...........",
".............                                                                        ...........",
".............                                                                        ...........",
".............                                                                        ...........",
"..............                                                                      ............",
"..............                                                                      ............",
"..............                                                                      ............",
"...............                                                                    .............",
"...............                                                                    .............",
"................                                                                  ..............",
"................                                                                  ..............",
".................                                                                ...............",
".................                                                                ...............",
"..................                                                              ................",
"...................                                                            .................",
"....................                                                          ..................",
"....................                                                          ..................",
".....................                                                        ...................",
"......................                                                      ....................",
".......................                                                    .....................",
"........................                                                  ......................",
".........................                                                .......................",
"...........................                                            .........................",
"............................                                          ..........................",
".............................                                        ...........................",
"...............................                                    .............................",
".................................                                ...............................",
"...................................                            .................................",
"......................................                      ....................................",
"...........................................            .........................................",
"................................................................................................",
"................................................................................................",
"................................................................................................",
"................................................................................................",
"................................................................................................",
"................................................................................................",
"................................................................................................",
"................................................................................................"
};
