/* XPM */
static char *_[] = {
/* columns rows colors chars-per-pixel */
"96 108 4 1 ",
"  c #DCBEA8",
". c #FFFCE2",
"X c white",
"o c None",
/* pixels */
"oooooooooooooooooooooooooooooooooooooooooooooooooooooooooooooooooooooooooooooooooooooooooooooooo",
"oooooooooooooooooooooooooooooooooooooooooooooooooooooooooooooooooooooooooooooooooooooooooooooooo",
"oooooooooooooooooooooooooooooooooooooooooooooooooooooooooooooooooooooooooooooooooooooooooooooooo",
"oooooooooooooooooooooooooooooooooooooooooooooooooooooooooooooooooooooooooooooooooooooooooooooooo",
"oooooooooooooooooooooooooooooooooooooooooooooooooooooooooooooooooooooooooooooooooooooooooooooooo",
"oooooooooooooooooooooooooooooooooooooooooooooooooooooooooooooooooooooooooooooooooooooooooooooooo",
"oooooooooooooooooooooooooooooooooooooooooooooooooooooooooooooooooooooooooooooooooooooooooooooooo",
"oooooooooooooooooooooooooooooooooooooooooooooooooooooooooooooooooooooooooooooooooooooooooooooooo",
"oooooooooooooooooooooooooooooooooooooooooooooooooooooooooooooooooooooooooooooooooooooooooooooooo",
"oooooooooooooooooooooooooooooooooooooooooooooooooooooooooooooooooooooooooooooooooooooooooooooooo",
"oooooooooooooooooooooooooooooooooooooooooooooooooooooooooooooooooooooooooooooooooooooooooooooooo",
"oooooooooooooooooooooooooooooooooooooooooooooooooooooooooooooooooooooooooooooooooooooooooooooooo",
"oooooooooooooooooooooooooooooooooooooooooooooooooooooooooooooooooooooooooooooooooooooooooooooooo",
"oooooooooooooooooooooooooooooooooooooooooooooooooooooooooooooooooooooooooooooooooooooooooooooooo",
"oooooooooooooooooooooooooooooooooooooooooooooooooooooooooooooooooooooooooooooooooooooooooooooooo",
"oooooooooooooooooooooooooooooooooooooooooooooooooooooooooooooooooooooooooooooooooooooooooooooooo",
"oooooooooooooooooooooooooooooooooooooooooooooooooooooooooooooooooooooooooooooooooooooooooooooooo",
"oooooooooooooooooooooooooooooooooooooooooooooooooooooooooooooooooooooooooooooooooooooooooooooooo",
"oooooooooooooooooooooooooooooooooooooooooooooooooooooooooooooooooooooooooooooooooooooooooooooooo",
"oooooooooooooooooooooooooooooooooooooooooooooooooooooooooooooooooooooooooooooooooooooooooooooooo",
"oooooooooooooooooooooooooooooooooooooooooooooooooooooooooooooooooooooooooooooooooooooooooooooooo",
"oooooooooooooooooooooooooooooooooooooooooXXXXXXXXXXXXXXXoooooooooooooooooooooooooooooooooooooooo",
"oooooooooooooooooooooooooooooooooooooXXXXXXXXXXXXXXXXXXXXXXXoooooooooooooooooooooooooooooooooooo",
"ooooooooooooooooooooooooooooooooooXXXXXXXXoooooooooooooXXXXXXXXooooooooooooooooooooooooooooooooo",
"oooooooooooooooooooooooooooooooXXXXXXXoooooooooooooooooooooXXXXXXXoooooooooooooooooooooooooooooo",
"oooooooooooooooooooooooooooooXXXXXXooooooooooo......ooooooooooXXXXXXoooooooooooooooooooooooooooo",
"oooooooooooooooooooooooooooXXXXXooooooooooo............ooooooooooXXXXXoooooooooooooooooooooooooo",
"ooooooooooooooooooooooooooXXXXoooooooooooo..............oooooooooooXXXXooooooooooooooooooooooooo",
"ooooooooooooooooooooooooXXXXooooooooooooo................ooooooooooooXXXXooooooooooooooooooooooo",
"oooooooooooooooooooooooXXXXooooooooooooo..................ooooooooooooXXXXoooooooooooooooooooooo",
"ooooooooooooooooooooooXXXoooooooooooooo....................oooooooooooooXXXooooooooooooooooooooo",
"ooooooooooooooooooooXXXXoooooooooooooo......................oooooooooooooXXXXooooooooooooooooooo",
"oooooooooooooooooooXXXXooooooooooooooo......................ooooooooooooooXXXXoooooooooooooooooo",
"ooooooooooooooooooXXXoooooooooooooooo........................oooooooooooooooXXXooooooooooooooooo",
"oooooooooooooooooXXXoooooooooooooooo..........................oooooooooooooooXXXoooooooooooooooo",
"oooooooooooooooooXXooooooooooooooooo..........................ooooooooooooooooXXoooooooooooooooo",
"ooooooooooooooooXXXooooooooooooooooo..........................ooooooooooooooooXXXooooooooooooooo",
"oooooooooooooooXXXooooooooooooooooo............................ooooooooooooooooXXXoooooooooooooo",
"ooooooooooooooXXXoooooooooooooooooo............................oooooooooooooooooXXXooooooooooooo",
"ooooooooooooooXXooooooooooooooooooo............................ooooooooooooooooooXXooooooooooooo",
"oooooooooooooXXXoooooooooooooooooo..............................oooooooooooooooooXXXoooooooooooo",
"ooooooooooooXXXooooooooooooooooooo..............................ooooooooooooooooooXXXooooooooooo",
"ooooooooooooXXoooooooooooooooooooo..............................oooooooooooooooooooXXooooooooooo",
"oooooooooooXXXoooooooooooooooooooo..............................oooooooooooooooooooXXXoooooooooo",
"oooooooooooXXoooooooooooooooooooo................................oooooooooooooooooooXXoooooooooo",
"ooooooooooXXXoooooooooooooooooooo................................oooooooooooooooooooXXXooooooooo",
"ooooooooooXXooooooooooooooooooooo................................ooooooooooooooooooooXXooooooooo",
"ooooooooooXXooooooooooooooooooooo................................ooooooooooooooooooooXXooooooooo",
"oooooooooXXXooooooooooooooooooooo................................ooooooooooooooooooooXXXoooooooo",
"oooooooooXXoooooooooooooooooooooo................................oooooooooooooooooooooXXoooooooo",
"oooooooooXXoooooooooooooooooooooo................................oooooooooooooooooooooXXoooooooo",
"ooooooooXXXoooooooooooooooooooo...................................ooooooooooooooooooooXXXooooooo",
"ooooooooXXoooooooooooooooooo.........................................ooooooooooooooooooXXooooooo",
"ooooooooXXooooooooooooooo...............................................oooooooooooooooXXooooooo",
"ooooooooXXooooooooooooo...................................................oooooooooooooXXooooooo",
"oooooooXXXooooooooooo.......................................................oooooooooooXXXoooooo",
"oooooooXXooooooooooo.........................................................oooooooooooXXoooooo",
"oooooooXXooooooooo ............................................................oooooooooXXoooooo",
"oooooooXXoooooooo ............................................................. ooooooooXXoooooo",
"oooooooXXooooooo ............................................................... oooooooXXoooooo",
"oooooooXXoooooo  ................................................................ ooooooXXoooooo",
"oooooooXXooooo   ................................................................  oooooXXoooooo",
"oooooooXXoooo   ..................................................................  ooooXXoooooo",
"oooooooXXoooo   ..................................................................  ooooXXoooooo",
"oooooooXXooo    ..................................................................   oooXXoooooo",
"oooooooXXooo    ..................................................................   oooXXoooooo",
"oooooooXXoo      ................................................................     ooXXoooooo",
"oooooooXXoo      ................................................................     ooXXoooooo",
"oooooooXXoo      ................................................................     ooXXoooooo",
"oooooooXXXo       ..............................................................      oXXXoooooo",
"ooooooooXXo       ..............................................................      oXXooooooo",
"ooooooooXXo        ............................................................       oXXooooooo",
"ooooooooXXo         ..........................................................        oXXooooooo",
"ooooooooXXXo         ... ....................................................        oXXXooooooo",
"oooooooooXXo          .. . .................................................         oXXoooooooo",
"oooooooooXXoo          . ........................................... ......         ooXXoooooooo",
"oooooooooXXXo            . ....................................... .......          oXXXoooooooo",
"ooooooooooXXoo           . ....................................... . ....          ooXXooooooooo",
"ooooooooooXXooo            ....................................... . ..           oooXXooooooooo",
"ooooooooooXXXooo         .   ......................... ........... . .           oooXXXooooooooo",
"oooooooooooXXoooo                ..................... . ........    .          ooooXXoooooooooo",
"oooooooooooXXXoooo                     ............... . ...                   ooooXXXoooooooooo",
"ooooooooooooXXooooo                                    .                  o   oooooXXooooooooooo",
"ooooooooooooXXXoooooo                                                     o ooooooXXXooooooooooo",
"oooooooooooooXXXooooooo                                .                o oooooooXXXoooooooooooo",
"ooooooooooooooXXooooooooo    o o                                        o o oooooXXooooooooooooo",
"ooooooooooooooXXXooooooooooo o                                       oooo ooooooXXXooooooooooooo",
"oooooooooooooooXXXoooooooooooo o                                  oooooooooooooXXXoooooooooooooo",
"ooooooooooooooooXXXooooooooo o o                                ooooooooooooooXXXooooooooooooooo",
"oooooooooooooooooXXooooooooooooo ooooo                     oooooooooooooooooooXXoooooooooooooooo",
"oooooooooooooooooXXXoooooooooooooooooooooooooooooooooooooooooooooooooooooooooXXXoooooooooooooooo",
"ooooooooooooooooooXXXoooooooooooooooooooooooooooooooooooooooooooooooooooooooXXXooooooooooooooooo",
"oooooooooooooooooooXXXXoooooooooooooooooooooooooooooooooooooooooooooooooooXXXXoooooooooooooooooo",
"ooooooooooooooooooooXXXXoooooooooooooooooooooooooooooooooooooooooooooooooXXXXooooooooooooooooooo",
"ooooooooooooooooooooooXXXoooooooooooooooooooooooooooooooooooooooooooooooXXXooooooooooooooooooooo",
"oooooooooooooooooooooooXXXXoooooooooooooooooooooooooooooooooooooooooooXXXXoooooooooooooooooooooo",
"ooooooooooooooooooooooooXXXXoooooooooooooooooooooooooooooooooooooooooXXXXooooooooooooooooooooooo",
"ooooooooooooooooooooooooooXXXXoooooooooooooooooooooooooooooooooooooXXXXooooooooooooooooooooooooo",
"oooooooooooooooooooooooooooXXXXXoooooooooooooooooooooooooooooooooXXXXXoooooooooooooooooooooooooo",
"oooooooooooooooooooooooooooooXXXXXXoooooooooooooooooooooooooooXXXXXXoooooooooooooooooooooooooooo",
"oooooooooooooooooooooooooooooooXXXXXXXoooooooooooooooooooooXXXXXXXoooooooooooooooooooooooooooooo",
"ooooooooooooooooooooooooooooooooooXXXXXXXXoooooooooooooXXXXXXXXooooooooooooooooooooooooooooooooo",
"oooooooooooooooooooooooooooooooooooooXXXXXXXXXXXXXXXXXXXXXXXoooooooooooooooooooooooooooooooooooo",
"oooooooooooooooooooooooooooooooooooooooooXXXXXXXXXXXXXXXoooooooooooooooooooooooooooooooooooooooo",
"oooooooooooooooooooooooooooooooooooooooooooooooooooooooooooooooooooooooooooooooooooooooooooooooo",
"oooooooooooooooooooooooooooooooooooooooooooooooooooooooooooooooooooooooooooooooooooooooooooooooo",
"oooooooooooooooooooooooooooooooooooooooooooooooooooooooooooooooooooooooooooooooooooooooooooooooo",
"oooooooooooooooooooooooooooooooooooooooooooooooooooooooooooooooooooooooooooooooooooooooooooooooo"
};
