/* XPM */
static char *_[] = {
/* columns rows colors chars-per-pixel */
"96 108 4 1 ",
"  c #DCBEA8",
". c #FFFCE2",
"X c white",
"o c None",
/* pixels */
"oooooooooooooooooooooooooooooooooooooooooooooooooooooooooooooooooooooooooooooooooooooooooooooooo",
"oooooooooooooooooooooooooooooooooooooooooooooooooooooooooooooooooooooooooooooooooooooooooooooooo",
"oooooooooooooooooooooooooooooooooooooooooooooooooooooooooooooooooooooooooooooooooooooooooooooooo",
"oooooooooooooooooooooooooooooooooooooooooooooooooooooooooooooooooooooooooooooooooooooooooooooooo",
"oooooooooooooooooooooooooooooooooooooooooooooooooooooooooooooooooooooooooooooooooooooooooooooooo",
"oooooooooooooooooooooooooooooooooooooooooooooooooooooooooooooooooooooooooooooooooooooooooooooooo",
"oooooooooooooooooooooooooooooooooooooooooooooooooooooooooooooooooooooooooooooooooooooooooooooooo",
"oooooooooooooooooooooooooooooooooooooooooooooooooooooooooooooooooooooooooooooooooooooooooooooooo",
"oooooooooooooooooooooooooooooooooooooooooooooooooooooooooooooooooooooooooooooooooooooooooooooooo",
"oooooooooooooooooooooooooooooooooooooooooooooooooooooooooooooooooooooooooooooooooooooooooooooooo",
"oooooooooooooooooooooooooooooooooooooooooooooooooooooooooooooooooooooooooooooooooooooooooooooooo",
"oooooooooooooooooooooooooooooooooooooooooooooooooooooooooooooooooooooooooooooooooooooooooooooooo",
"oooooooooooooooooooooooooooooooooooooooooooooooooooooooooooooooooooooooooooooooooooooooooooooooo",
"oooooooooooooooooooooooooooooooooooooooooooooooooooooooooooooooooooooooooooooooooooooooooooooooo",
"oooooooooooooooooooooooooooooooooooooooooooooooooooooooooooooooooooooooooooooooooooooooooooooooo",
"oooooooooooooooooooooooooooooooooooooooooooooooooooooooooooooooooooooooooooooooooooooooooooooooo",
"oooooooooooooooooooooooooooooooooooooooooooooooooooooooooooooooooooooooooooooooooooooooooooooooo",
"ooooooooooooooooooooooooooooooooooooooooooXXXXXXXXXXXXXooooooooooooooooooooooooooooooooooooooooo",
"oooooooooooooooooooooooooooooooooooooXXXXXoooooooooooooXXXXXoooooooooooooooooooooooooooooooooooo",
"ooooooooooooooooooooooooooooooooooXXXoooooooooooooooooooooooXXXooooooooooooooooooooooooooooooooo",
"oooooooooooooooooooooooooooooooXXXoooooooooooooooooooooooooooooXXXoooooooooooooooooooooooooooooo",
"oooooooooooooooooooooooooooooXXoooooooooooooooooooooooooooooooooooXXoooooooooooooooooooooooooooo",
"oooooooooooooooooooooooooooXXoooooooooooooooooooooooooooooooooooooooXXoooooooooooooooooooooooooo",
"oooooooooooooooooooooooooXXooooooooooooooooooooooooooooooooooooooooooooooooooooooooooooooooooooo",
"ooooooooooooooooooooooooXooooooooooooooooooooooooooooooooooooooooooooooooooooooooooooooooooooooo",
"oooooooooooooooooooooooXoooooooooooooooooooooo......oooooooooooooooooooooooooooooooooooooooooooo",
"oooooooooooooooooooooXXoooooooooooooooooooo............ooooooooooooooooooooooooooooooooooooooooo",
"ooooooooooooooooooooXooooooooooooooooooooo..............ooooooooooooooooooooXooooooooooooooooooo",
"oooooooooooooooooooXooooooooooooooooooooo................ooooooooooooooooooooXoooooooooooooooooo",
"oooooooooooooooooooooooooooooooooooooooo..................ooooooooooooooooooooXooooooooooooooooo",
"ooooooooooooooooooooooooooooooooooooooo....................ooooooooooooooooooooXoooooooooooooooo",
"oooooooooooooooooooooooooooooooooooooo......................ooooooooooooooooooooXooooooooooooooo",
"oooooooooooooooooooooooooooooooooooooo......................oooooooooooooooooooooXoooooooooooooo",
"ooooooooooooooooooooooooooooooooooooo........................oooooooooooooooooooooXooooooooooooo",
"oooooooooooooooooooooooooooooooooooo..........................oooooooooooooooooooooXoooooooooooo",
"oooooooooooooooooooooooooooooooooooo..........................oooooooooooooooooooooXoooooooooooo",
"ooooooooooooXooooooooooooooooooooooo..........................ooooooooooooooooooooooXooooooooooo",
"oooooooooooXooooooooooooooooooooooo............................ooooooooooooooooooooooXoooooooooo",
"ooooooooooXoooooooooooooooooooooooo............................oooooooooooooooooooooooXooooooooo",
"ooooooooooXoooooooooooooooooooooooo............................oooooooooooooooooooooooXooooooooo",
"oooooooooXoooooooooooooooooooooooo..............................oooooooooooooooooooooooXoooooooo",
"oooooooooXoooooooooooooooooooooooo..............................oooooooooooooooooooooooXoooooooo",
"ooooooooXooooooooooooooooooooooooo..............................ooooooooooooooooooooooooXooooooo",
"ooooooooXooooooooooooooooooooooooo..............................ooooooooooooooooooooooooXooooooo",
"oooooooXooooooooooooooooooooooooo................................ooooooooooooooooooooooooXoooooo",
"oooooooXooooooooooooooooooooooooo................................ooooooooooooooooooooooooXoooooo",
"oooooooXooooooooooooooooooooooooo................................ooooooooooooooooooooooooXoooooo",
"ooooooXoooooooooooooooooooooooooo................................oooooooooooooooooooooooooXooooo",
"ooooooXoooooooooooooooooooooooooo................................oooooooooooooooooooooooooXooooo",
"ooooooXoooooooooooooooooooooooooo................................oooooooooooooooooooooooooXooooo",
"oooooXooooooooooooooooooooooooooo................................ooooooooooooooooooooooooooXoooo",
"oooooXooooooooooooooooooooooooo...................................oooooooooooooooooooooooooXoooo",
"oooooXoooooooooooooooooooooo.........................................ooooooooooooooooooooooXoooo",
"oooooXooooooooooooooooooo...............................................oooooooooooooooooooXoooo",
"oooooXooooooooooooooooo...................................................oooooooooooooooooXoooo",
"ooooXoooooooooooooooo.......................................................oooooooooooooooooooo",
"ooooXooooooooooooooo.........................................................ooooooooooooooooooo",
"ooooXooooooooooooo ............................................................ooooooooooooooooo",
"ooooXoooooooooooo ............................................................. oooooooooooooooo",
"ooooXooooooooooo ............................................................... ooooooooooooooo",
"ooooXoooooooooo  ................................................................ oooooooooooooo",
"ooooXooooooooo   ................................................................  ooooooooooooo",
"ooooXoooooooo   ..................................................................  oooooooooooo",
"ooooXoooooooo   ..................................................................  oooooooooooo",
"ooooXooooooo    ..................................................................   ooooooooooo",
"ooooXooooooo    ..................................................................   ooooooooooo",
"ooooXoooooo      ................................................................     oooooooooo",
"ooooXoooooo      ................................................................     oooooooooo",
"oooooXooooo      ................................................................     oooooooooo",
"oooooXooooo       ..............................................................      oooooooooo",
"oooooXooooo       ..............................................................      oooooXoooo",
"oooooXooooo        ............................................................       oooooXoooo",
"oooooXooooo         ..........................................................        oooooXoooo",
"ooooooXooooo         ... ....................................................        oooooXooooo",
"ooooooXooooo          .. . .................................................         oooooXooooo",
"ooooooXoooooo          . ........................................... ......         ooooooXooooo",
"oooooooXooooo            . ....................................... .......          oooooXoooooo",
"oooooooXoooooo           . ....................................... . ....          ooooooXoooooo",
"oooooooXooooooo            ....................................... . ..           oooooooXoooooo",
"ooooooooXooooooo         .   ......................... ........... . .           oooooooXooooooo",
"ooooooooXoooooooo                ..................... . ........    .          ooooooooXooooooo",
"oooooooooXoooooooo                     ............... . ...                   ooooooooXoooooooo",
"oooooooooXooooooooo                                    .                  o   oooooooooXoooooooo",
"ooooooooooXoooooooooo                                                     o ooooooooooXooooooooo",
"ooooooooooXoooooooooooo                                .                o ooooooooooooXooooooooo",
"oooooooooooXooooooooooooo    o o                                        o o oooooooooXoooooooooo",
"ooooooooooooXooooooooooooooo o                                       oooo ooooooooooXooooooooooo",
"oooooooooooooXoooooooooooooooo o                                  oooooooooooooooooXoooooooooooo",
"oooooooooooooXoooooooooooooo o o                                oooooooooooooooooooXoooooooooooo",
"ooooooooooooooXooooooooooooooooo ooooo                     oooooooooooooooooooooooXooooooooooooo",
"oooooooooooooooXoooooooooooooooooooooooooooooooooooooooooooooooooooooooooooooooooXoooooooooooooo",
"ooooooooooooooooXoooooooooooooooooooooooooooooooooooooooooooooooooooooooooooooooXooooooooooooooo",
"oooooooooooooooooooooooooooooooooooooooooooooooooooooooooooooooooooooooooooooooXoooooooooooooooo",
"ooooooooooooooooooooooooooooooooooooooooooooooooooooooooooooooooooooooooooooooXooooooooooooooooo",
"oooooooooooooooooooooooooooooooooooooooooooooooooooooooooooooooooooooooooooooXoooooooooooooooooo",
"ooooooooooooooooooooooooooooooooooooooooooooooooooooooooooooooooooooooooooooXooooooooooooooooooo",
"ooooooooooooooooooooooooooooooooooooooooooooooooooooooooooooooooooooooooooXXoooooooooooooooooooo",
"oooooooooooooooooooooooooooooooooooooooooooooooooooooooooooooooooooooooooXoooooooooooooooooooooo",
"ooooooooooooooooooooooooooooooooooooooooooooooooooooooooooooooooooooooooXooooooooooooooooooooooo",
"ooooooooooooooooooooooooooXoooooooooooooooooooooooooooooooooooooooooooXXoooooooooooooooooooooooo",
"oooooooooooooooooooooooooooXXoooooooooooooooooooooooooooooooooooooooXXoooooooooooooooooooooooooo",
"oooooooooooooooooooooooooooooXXoooooooooooooooooooooooooooooooooooXXoooooooooooooooooooooooooooo",
"oooooooooooooooooooooooooooooooXXXoooooooooooooooooooooooooooooXXXoooooooooooooooooooooooooooooo",
"ooooooooooooooooooooooooooooooooooXXXoooooooooooooooooooooooXXXooooooooooooooooooooooooooooooooo",
"oooooooooooooooooooooooooooooooooooooXXXXXoooooooooooooXXXXXoooooooooooooooooooooooooooooooooooo",
"ooooooooooooooooooooooooooooooooooooooooooXXXXXXXXXXXXXooooooooooooooooooooooooooooooooooooooooo",
"oooooooooooooooooooooooooooooooooooooooooooooooooooooooooooooooooooooooooooooooooooooooooooooooo",
"oooooooooooooooooooooooooooooooooooooooooooooooooooooooooooooooooooooooooooooooooooooooooooooooo"
};
