/* XPM */
static char *_[] = {
/* columns rows colors chars-per-pixel */
"96 108 4 1 ",
"  c #DCBEA8",
". c gainsboro",
"X c white",
"o c None",
/* pixels */
"oooooooooooooooooooooooooooooooooooooooooooooooooooooooooooooooooooooooooooooooooooooooooooooooo",
"oooooooooooooooooooooooooooooooooooooooooooooooooooooooooooooooooooooooooooooooooooooooooooooooo",
"oooooooooooooooooooooooooooooooooooooooooooooo      oooooooooooooooooooooooooooooooooooooooooooo",
"oooooooooooooooooooooooooooooooooooooooooooo          oooooooooooooooooooooooooooooooooooooooooo",
"ooooooooooooooooooooooooooooooooooooooooooo            ooooooooooooooooooooooooooooooooooooooooo",
"oooooooooooooooooooooooooooooooooooooooooo              oooooooooooooooooooooooooooooooooooooooo",
"ooooooooooooooooooooooooooooooooooooooooo                ooooooooooooooooooooooooooooooooooooooo",
"oooooooooooooooooooooooooooooooooooooooo                  oooooooooooooooooooooooooooooooooooooo",
"ooooooooooooooooooooooooooooooooooooooo                    ooooooooooooooooooooooooooooooooooooo",
"ooooooooooooooooooooooooooooooooooooooo                    ooooooooooooooooooooooooooooooooooooo",
"oooooooooooooooooooooooooooooooooooooo                      oooooooooooooooooooooooooooooooooooo",
"oooooooooooooooooooooooooooooooooooooo                      oooooooooooooooooooooooooooooooooooo",
"oooooooooooooooooooooooooooooooooooooo                      oooooooooooooooooooooooooooooooooooo",
"ooooooooooooooooooooooooooooooooooooo                        ooooooooooooooooooooooooooooooooooo",
"ooooooooooooooooooooooooooooooooooooo                        ooooooooooooooooooooooooooooooooooo",
"ooooooooooooooooooooooooooooooooooooo                        ooooooooooooooooooooooooooooooooooo",
"ooooooooooooooooooooooooooooooooooooo                        ooooooooooooooooooooooooooooooooooo",
"oooooooooooooooooooooooooooooooooooo                          oooooooooooooooooooooooooooooooooo",
"oooooooooooooooooooooooooooooooooooo                          oooooooooooooooooooooooooooooooooo",
"oooooooooooooooooooooooooooooooooooo                      o   oooooooooooooooooooooooooooooooooo",
"oooooooooooooooooooooooooooooooooooo   o            o     o   oooooooooooooooooooooooooooooooooo",
"oooooooooooooooooooooooooooooooooooo o o                  o o oooooooooooooooooooooooooooooooooo",
"oooooooooooooooooooooooooooooooooooo o o            o     ooo oooooooooooooooooooooooooooooooooo",
"oooooooooooooooooooooooooooooooooooo o o o    o     o     o o oooooooooooooooooooooooooooooooooo",
"oooooooooooooooooooooooooooooooooooooo o oooooo ooo ooooooooo oooooooooooooooooooooooooooooooooo",
"oooooooooooooooooooooooooooooooooooo ooo oooooo oooooooooooooooooooooooooooooooooooooooooooooooo",
"oooooooooooooooooooooooooooooooooooooooooooooooooooooooooooooooooooooooooooooooooooooooooooooooo",
"oooooooooooooooooooooooooooooooooooooooooooooooooooooooooooooooooooooooooooooooooooooooooooooooo",
"oooooooooooooooooooooooooooooooooooooooooooooooooooooooooooooooooooooooooooooooooooooooooooooooo",
"oooooooooooooooooooooooooooooooooooooooooooooooooooooooooooooooooooooooooooooooooooooooooooooooo",
"oooooooooooooooooooooooooooooooooooooooooooooooooooooooooooooooooooooooooooooooooooooooooooooooo",
"oooooooooooooooooooooooooooooooooooooooooooooooooooooooooooooooooooooooooooooooooooooooooooooooo",
"oooooooooooooooooooooooooooooooooooooooooooooooooooooooooooooooooooooooooooooooooooooooooooooooo",
"oooooooooooooooooooooooooooooooooooooooooooooooooooooooooooooooooooooooooooooooooooooooooooooooo",
"oooooooooooooooooooooooooooooooooooooooooooooooooooooooooooooooooooooooooooooooooooooooooooooooo",
"oooooooooooooooooooooooooooooooooooooooooooooooooooooooooooooooooooooooooooooooooooooooooooooooo",
"oooooooooooooooooooooooooooooooooooooooooooooooooooooooooooooooooooooooooooooooooooooooooooooooo",
"oooooooooooooooooooooooooooooooooooooooooooooooooooooooooooooooooooooooooooooooooooooooooooooooo",
"oooooooooooooooooooooooooooooooooooooooooooooooooooooooooooooooooooooooooooooooooooooooooooooooo",
"oooooooooooooooooooooooooooooooooooooooooooooooooooooooooooooooooooooooooooooooooooooooooooooooo",
"oooooooooooooooooooooooooooooooooooooooooXXooooooooooooooooooooooooooooooooooooooooooooooooooooo",
"oooooooooooooooooooooooooooooooooooooooo.oooooooooooooXXXooooooooooooooooooooooooooooooooooooooo",
"oooooooooooooooooooooooooooooooooooooooooooooooooooooX...Xoooooooooooooooooooooooooooooooooooooo",
"ooooooooooooooooooooooooooooooooooooooooooooooooooooo.ooo.oooooooooooooooooooooooooooooooooooooo",
"oooooooooooooooooooooooooooooooooooooooooooooooooooooooooooooooooooooooooooooooooooooooooooooooo",
"oooooooooooooooooooooooooooooooooooooooooooooooooooooooooooooooooooooooooooooooooooooooooooooooo",
"oooooooooooooooooooooooooooooooooooooooooooooooooooooooooooooooooooooooooooooooooooooooooooooooo",
"oooooooooooooooooooooooooooooooooooooooooooooooooooooooooooooooooooooooooooooooooooooooooooooooo",
"oooooooooooooooooooooooooooooooooooooooooooooooooooooooooooooooooooooooooooooooooooooooooooooooo",
"ooooooooooooooooooooooooooooooooooooooooXXXooooooooooooooooooooooooooooooooooooooooooooooooooooo",
"oooooooooooooooooooooooooooooooooooooooXXXXXoooooooooooooooooooooooooooooooooooooooooooooooooooo",
"oooooooooooooooooooooooooooooooooooooooXXXXXoooooooooooooooooooooooooooooooooooooooooooooooooooo",
"ooooooooooooooooooooooooooooooooooooooo.XX..oooooooooooooooooooooooooooooooooooooooooooooooooooo",
"oooooooooooooooooooooooooooooooooooooooo...ooooooooooooooooooooooooooooooooooooooooooooooooooooo",
"oooooooooooooooooooooooooooooooooooooooooooooooooooooooooooooooooooooooooooooooooXXXXooooooooooo",
"ooooooooooooooooooooooooooooooooooooooooooooooooooooooooooooooooooooooooooooooooXXXXXXoooooooooo",
"ooooooooooooooooooooooooooooooooooooooooooooooooooooooooXXXooooooooooooooooooooo...XX.oooooooooo",
"oooooooooooooooooooooooooooooooooooooooooooooooooooooooXXXXXooooooooooooooooooooooo...oooooooooo",
"ooooooooooooooooooooooooooooooooooooooooooooooooooooooXXXXXXXooooooooooooooooooooooo..oooooooooo",
"ooooooooooooooooooooooooooooooooooooooooooooooooooooooXXXXXX.ooooooooooooooooooooooooooooooooooo",
"oooooooooooXXXooooooooooooooooooooooooooooooooooooooooXXXXX..ooooooooooooooooooooooooooooooooooo",
"ooooooooooXXXXXoooooooooooooooooooooooooooooooooooooooo.....oooooooooooooooooooooooooooooooooooo",
"oooooooooXXXX...oooooooooooooooooooooooooooooooooooooooo...ooooooooooooooooooooooooooooooooooooo",
"oooooooooXXX.ooooooooooooooooooooooooooooooooooooooooooooooooooooooooooooooooooooooooooooooooooo",
"ooooooooo...ooooooooooooooooooooooooooooooooooooooooooooooooooXXXXoooooooooooooooooooooooooooooo",
"oooooooooo.oooooooooooooooooooXXXXXooooooooooooooooooooooooooXXXXXXooooooooooooooooooooooooooooo",
"oooooooooooooooooooooooooooooXXXXXXXooooooooooooooooooooooooXXX.....oooooooooooooooooooooooooooo",
"oooooooooooooooooooooooooooo.XXXXXXXXoooooooooooooooooooooooXX.oooo.oooooooooooooooooooooooooooo",
"ooooooooooooooooooooooooooo.......XXXXoooooooooooooooooooooo..oooooooooooooooooooooooooooooooooo",
"ooooooooooooooooooooooooooo.oooooo..XXoooooooooooooooooooooo.ooooooooooooooooooooooooooooooooooo",
"ooooooooooooooooooooooooooooooooooo..Xoooooooooooooooooooooooooooooooooooooooooooooooooooooooooo",
"oooooooooooooooooooooooooooooooooooo..oooooooooooooooooooooooooooooooooooooooooooooooooooooooooo",
"oooooooooooooooooooooooooooooooooooooooooooooooooooooooooooooooooooooooooooooooooooooooooooooooo",
"oooooooooooooooooooooooooooooooooooooooooooooooooooooooooooooooooooooooooooooooooooooooooooooooo",
"oooooooooooooooooooooooooooooooooooooooooooooooooooooooooooooooooooooooooooooooooooooooooooooooo",
"oooooooooooooooooooooooooooooooooooooooooooooooooooooooooooooooooooooooooooooooooooooooooooooooo",
"oooooooooooooooooooooooooooooooooooooooooooooooooooooooooooooooooooooooooooooooooooooooooooooooo",
"oooooooooooooooooooooooooooooooooooooooooooooooooooooooooooooooooooooooooooooooooooooooooooooooo",
"oooooooooooooooooooooooooooooooooooooooooooooooooooooooooooooooooooooooooooooooooooooooooooooooo",
"oooooooooooooooooooooooooooooooooooooooooooooooooooooooooooooooooooooooooooooooooooooooooooooooo",
"oooooooooooooooooooooooooooooooooooooooooooooooooooooooooooooooooooooooooooooooooooooooooooooooo",
"oooooooooooooooooooooooooooooooooooooooooooooooooooooooooooooooooooooooooooooooooooooooooooooooo",
"oooooooooooooooooooooooooooooooooooooooooooooooooooooooooooooooooooooooooooooooooooooooooooooooo",
"oooooooooooooooooooooooooooooooooooooooooooooooooooooooooooooooooooooooooooooooooooooooooooooooo",
"oooooooooooooooooooooooooooooooooooooooooooooooooooooooooooooooooooooooooooooooooooooooooooooooo",
"oooooooooooooooooooooooooooooooooooooooooooooooooooooooooooooooooooooooooooooooooooooooooooooooo",
"oooooooooooooooooooooooooooooooooooooooooooooooooooooooooooooooooooooooooooooooooooooooooooooooo",
"oooooooooooooooooooooooooooooooooooooooooooooooooooooooooooooooooooooooooooooooooooooooooooooooo",
"oooooooooooooooooooooooooooooooooooooooooooooooooooooooooooooooooooooooooooooooooooooooooooooooo",
"oooooooooooooooooooooooooooooooooooooooooooooooooooooooooooooooooooooooooooooooooooooooooooooooo",
"oooooooooooooooooooooooooooooooooooooooooooooooooooooooooooooooooooooooooooooooooooooooooooooooo",
"oooooooooooooooooooooooooooooooooooooooooooooooooooooooooooooooooooooooooooooooooooooooooooooooo",
"oooooooooooooooooooooooooooooooooooooooooooooooooooooooooooooooooooooooooooooooooooooooooooooooo",
"oooooooooooooooooooooooooooooooooooooooooooooooooooooooooooooooooooooooooooooooooooooooooooooooo",
"oooooooooooooooooooooooooooooooooooooooooooooooooooooooooooooooooooooooooooooooooooooooooooooooo",
"oooooooooooooooooooooooooooooooooooooooooooooooooooooooooooooooooooooooooooooooooooooooooooooooo",
"oooooooooooooooooooooooooooooooooooooooooooooooooooooooooooooooooooooooooooooooooooooooooooooooo",
"oooooooooooooooooooooooooooooooooooooooooooooooooooooooooooooooooooooooooooooooooooooooooooooooo",
"oooooooooooooooooooooooooooooooooooooooooooooooooooooooooooooooooooooooooooooooooooooooooooooooo",
"oooooooooooooooooooooooooooooooooooooooooooooooooooooooooooooooooooooooooooooooooooooooooooooooo",
"oooooooooooooooooooooooooooooooooooooooooooooooooooooooooooooooooooooooooooooooooooooooooooooooo",
"oooooooooooooooooooooooooooooooooooooooooooooooooooooooooooooooooooooooooooooooooooooooooooooooo",
"oooooooooooooooooooooooooooooooooooooooooooooooooooooooooooooooooooooooooooooooooooooooooooooooo",
"oooooooooooooooooooooooooooooooooooooooooooooooooooooooooooooooooooooooooooooooooooooooooooooooo",
"oooooooooooooooooooooooooooooooooooooooooooooooooooooooooooooooooooooooooooooooooooooooooooooooo",
"oooooooooooooooooooooooooooooooooooooooooooooooooooooooooooooooooooooooooooooooooooooooooooooooo",
"oooooooooooooooooooooooooooooooooooooooooooooooooooooooooooooooooooooooooooooooooooooooooooooooo",
"oooooooooooooooooooooooooooooooooooooooooooooooooooooooooooooooooooooooooooooooooooooooooooooooo"
};
