/* XPM */
static char *_[] = {
/* columns rows colors chars-per-pixel */
"80 72 13 1 ",
"  c #323443",
". c #E1BD6E",
"X c #6D718E",
"o c #BC6D9F",
"O c #95A2B0",
"+ c #E39B89",
"@ c #E79AB4",
"# c #FFEE87",
"$ c #FFEF8E",
"% c #FDCAAB",
"& c #B8B7D4",
"* c white",
"= c None",
/* pixels */
"==========================                    ==================================",
"========================       XXXXXXXXXXXXXXX  ================================",
"=======================          X XXOXOOOOOOXX  ===============================",
"=======================    X XXXXXXXXOXOOOOOOXX  ===============================",
"======================        XXXXXXXXXXXXXOXXXX  ==============================",
"======================     XXXXXXXXXXXXOXOOOOOXX  ==============================",
"======================      XXXXXXXXXXXXXXXXXXXX  ==============================",
"======================   XXXXX              XXXX  ==============================",
"======================    XXXX              XXXX  ==============================",
"======================   XXX  &&&&********&&  XX  ==============================",
"======================     X  &*************  XX  ==============================",
"============      ====  XXXX  &&*   ****   *  XX  ==      ======================",
"============      ====   XXX  ***  &****  &*  XX  ==      ======================",
"============ ==== ====  XXXX  ***   ****   *  XX  == ==== ======================",
"============ ==== ====  XXXX  &&*   ****   *  XX  == ==== ======================",
"============    ======   XXX  &*************  XX  ====    ======================",
"==============  ======  XXXX  &&&***********  XX  ====  ========================",
"==============  ======  XXXXXX    * **  **  XXXX  ====  ========================",
"============      =     XXXXXX    & &&  &&  XXXX   =      ======================",
"=========== XXXXX  XXX  XXXXXXXXXX    XX  XXXXXX  X XXXXXX =====================",
"=========== X X    XXX    X XXXXXXXXXXXXXXXXXX    X    X X =====================",
"=========== XXXX         XXXXXXXXXXXXXXXXXXXXXX      XXXXX =====================",
"===========                   X XXXXXXXXXXX X              =====================",
"===========        XXXXXXXXXXXXXXXXXXXXXXXXXXXXXXXX        =====================",
"============  oo    X XXXXXXXXXXXXXXXXXXXXXXXXXXXXXX  oo  ======================",
"============  @o  XXXXXX                        XXXX  o@  ======================",
"============  oo  XXXX                            XX  oo  ======================",
"============  @o                  %%        %%        o@  ======================",
"============  @o        ++++++++++%%++++++++%%++      o@  ======================",
"============  @@  ====  ++++++++++++++++++++++++  ==  @@  ======================",
"============  @@  ====  +++%%%%%%%%%%%%%%%%%  ++  ==  @@  ======================",
"============  @@  ====  +++++%+%%%  +%%%%%%%  ++  ==  @@  ======================",
"============  @@@@      ++++%%%%%%  +%%%%%%%  ++    @@@@  ======================",
"============  @@@@        ++++++++  +++%+%%%        @@@@  ======================",
"============  @@@@@ooooo            ++%%%%%%    ooo@@@@@  ======================",
"============  @@@@@@@@@@oo          ++++++++  oo@@@@@@@@  ======================",
"============  oo@@@@@@@ooooooooooo            ooo@@@@@oo  ======================",
"==============  ooo@@@@@@@@@@@@@@oo          o@@@@@ooo  ========================",
"==============          @@@@@@@@oooooo  ooooooo@        ========================",
"================        @@@@@@@@@@@@@o  @@@@@@@@      ==========================",
"====================  oooo@@@@@@@  @@o  @@@  @@@  ==============================",
"====================  oo@@@@@@@@ ## @o  @@ ## @@  ==============================",
"====================  ooo@o@@@@@ .. @o  @@ .. @@  ==============================",
"====================  oo@@@@@@@@    @o  @@    @@  ==============================",
"====================  oo@@@@@@@@oooo@o  @@oooo@@  ==============================",
"====================  o@@@@@@@@@@@@@@o  @@@@@@@@  ==============================",
"====================  o@@@@@@@@@@@@@@o  @@@@@@@@  ==============================",
"====================  ooo@@@@@@@    @o  @@    @@  ==============================",
"====================  oo@@@@@@@@ ## @o  @@ ## @@  ==============================",
"====================  ooooo@o@@@ .. @o  @@ .. @o  ==============================",
"====================  ooo@@@@@@@o  o@o  @@o  o@@  ==============================",
"====================  ooooooo@@@@@@@@o  @@@@@@oo  ==============================",
"====================  ooo@o@@@@@@@@@@o  @@@@@@@o  ==============================",
"====================  oooooooooooooooo  oooooooo  ==============================",
"====================  oooooooooooo          oooo  ==============================",
"====================   o           ..$$$$$$       ==============================",
"====================  oooo  #  #      ..$.$  #    ==============================",
"====================        .  .      .$$$$  .    ==============================",
"====================  oo           ........       ==============================",
"====================                              ==============================",
"====================                              ==============================",
"====================                              ==============================",
"====================                              ==============================",
"====================                              ==============================",
"====================                              ==============================",
"====================        ==============        ==============================",
"====================        ==============        ==============================",
"====================        ==============        ==============================",
"====================        ==============        ==============================",
"====================      ================      ================================",
"====================      ================      ================================",
"====================    ==================    =================================="
};
