/* XPM */
static char *_[] = {
/* columns rows colors chars-per-pixel */
"80 72 13 1 ",
"  c #323443",
". c #E1BD6E",
"X c #6D718E",
"o c #BC6D9F",
"O c #95A2B0",
"+ c #E39B89",
"@ c #E79AB4",
"# c #FFEE87",
"$ c #FFEF8E",
"% c #FDCAAB",
"& c #B8B7D4",
"* c white",
"= c None",
/* pixels */
"================================================================================",
"================================================================================",
"================================================================================",
"================================================================================",
"================================================================================",
"================================================================================",
"================================================================================",
"================================================================================",
"================================================================================",
"================================================================================",
"=========================                      =================================",
"=======================       XXXXXXXXXXXXXXXXX  ===============================",
"======================          X XXXXOXOOOOOOXX  ==============================",
"======================    X XXXXXXXXXXOXOOOOOOXX  ==============================",
"=====================        XXXXXXXXXXXXXXXOXXXX  =============================",
"=====================     XXXXXXXXXXXXXXOXOOOOOXX  =============================",
"=====================      XXXXXXXXXXXXXXXXXXXXXX  =============================",
"=====================   XXXXX                XXXX  =============================",
"=====================    XXXX                XXXX  =============================",
"=====================   XXX  &&&&**********&&  XX  =============================",
"=====================     X  &***************  XX  =================*===========",
"=====================  XXXX  &&*    ****    *  XX  ==================*==========",
"=====================   XXX  ***  &&**** *&&*  XX  ====================*========",
"=====================  XXXX  ***    **** ** *  XX  ====================**=======",
"=====================  XXXX  &&*    ****  ***  XX  =====================**======",
"=====================   XXX  &***************  XX  =====================**======",
"=====================  XXXX  &&&*************  XX  ======================**=====",
"=====================  XXXXXX    ** ***  *****XXX  ======================***====",
"================       XXXXXX    && &&&  && **XXX       ==================**====",
"==============  XXXXX  XXXXXXXXXX      XX  X***XX  XXXXX  ================***===",
"==============  XXXXX    X XXXXXXXXXXXXXXXXXX**    XXXXX  =================**===",
"=============  XX       XXXXXXXXXXXXXXXXXXXXX**X     XXXX  ================**===",
"=============  XX            X XXXXXXXXXXXXX ***     XXXX  ================***==",
"=============  XXXXXXXXXXXXXXXXXXXXXXXXXXXXXX***XXXXXXX    ================***==",
"=============      X XXXXXXXXXXXXXXXXXXXXXXXX***XXXXXXXX   ================***==",
"=============    XXXXXX                      *** XXXX      ================***==",
"===============  XXXX                        ***   XXXX  ==================***==",
"===============                              ***         ==================***==",
"=================      ++++++++++++++++++++++***+      ====================***==",
"=====================  +++%%%%%%%%%%%%%%%%%%% **+  =========================**==",
"===============        +++++%+%%%%  +%%%%%%%% **+      =====================**==",
"=============          ++++%%%%%%%  +%%%%%%%% **+        ===================**==",
"=============  oooooo    +++++++++  +++%+%%%% **   oooo  ===================**==",
"===========  oo@@@@@@oo             ++%%%%%%%*** oo@@@@oo  ================***==",
"===========  @@@@@@@@@@oo           +++++++++***o@@@@@@@@  ================***==",
"===========  @@@@@@@@@oooooooooooo           ***oo@@@@@@@  ================***==",
"===========  @@@@      @@@@@@@@@@oo         ***@@    @@@@  ===============***===",
"===========  @@@@      @@@@@@@@@oooooo  oooo***o@    @@@@  ===============***===",
"===========  @@  ==  oooo@@@@@@@@  @@o  @@@@***@@  ==  @@  ===============***===",
"===========  @@  ==  oo@@@@@@@@@ ## @o  @@@ ** @@  ==  @@  ===============**====",
"===========  @@  ==  ooo@o@@@@@@ .. @o  @@@ *. @@  ==  @@  ===============*=====",
"===========  @@  ==  oo@@@@@@@@@    @o  @@@ *  @@  ==  @@  ===============*=====",
"===========  @o  ==  oo@@@@@@@@@oooo@o  @@@*ooo@@  ==  o@  ==============*======",
"===========  oo  ==  o@@@@@@@@@@@@@@@o  @@**@@@@@  ==  oo  =============**======",
"===========  @o  ==  ooo@@@@@@@@    @o **@@    @@  ==  o@  =====================",
"===========  oo  ==  oo@@@@@@@@@ ## @o  @@@ ## @@  ==  oo  =====================",
"==========        =  ooooo@o@@@@ .. @o  @@@ .. @o  =        ====================",
"==========        =  ooo@@@@@@@@o  o@o  @@@o  o@@  =        ====================",
"========== XXXX   =  ooooooo@@@@@@@@@o  @@@@@@@oo  =  XXXXX ====================",
"========== X X    =  ooo@o@@@@@@@@@@@o  @@@@@@@@o  =    X X ====================",
"========== XXXXX  =  ooooooooooooooooo  ooooooooo  = XXXXXX ====================",
"===========      ==  oooooooooooo            oooo  ==      =====================",
"=============  ====   o           ...$$$$$$$       ====  =======================",
"=============  ====  oooo  #  #       ..$.$$  #    ====  =======================",
"===========    ====        .  .       .$$$$$  .    ====    =====================",
"=========== ==== ==  oo           ..........       == ==== =====================",
"=========== ==== ==                                == ==== =====================",
"===========      ==                                ==      =====================",
"===========      ==                                ==      =====================",
"===================       ================       ===============================",
"===================       ================       ===============================",
"===================     ==================     ================================="
};
