/* XPM */
static char *bl[] = {
/* columns rows colors chars-per-pixel */
"32 32 5 1 ",
"  c #181425",
". c #3F2832",
"X c #743F39",
"o c #B86F50",
"O c None",
/* pixels */
"oooooooooooooooooooooooooooooooo",
"..XXXXXoo.X.XXoooooooXoXXXXooooX",
"XX   .XXoo. .XXoXXXoXXoo   .XX..",
"oo  .XXXooo. .XX ..XXooo..    .X",
"oo. ...oooo.  .. .XXXXooX..  .Xo",
"oo.  ...XXX.      ..XXXXX..  .Xo",
"oo    ...X.   XX    .XXX.   ..XX",
"X.          .Xooo.   ...     ..X",
"X   Xo.    .XXXoooX    XoX.   ..",
"  .XXoo.  ...XXXooX. .XoooXX.   ",
"  ...ooX. ....XXXoX  .XoooooX   ",
"  ....oo. ...XX.    .XXoooooX.  ",
"X  ...XXX  ..XX    ..XXXoooo.  .",
"oX  .XXX    ..    ....XXXXoX  XX",
"ooX  .  Xoo       ...XXXXXX  XXX",
"Xoo.   .XXoo   ..  ..XXXXXX .X.X",
"XXoo.  ...Xo. .X. ...XXXXXX .X.X",
"Xoo.   .XXoo   .  ...XXXXXX  XXX",
"ooX  .  Xoo       ....XXXXoX  XX",
"oX  .XXX    ..     ..XXXoooo.  .",
"X  ...XXX  ..XX     .XXoooooX.  ",
"  ....oo. ...XX.XoX  .XoooooX   ",
"  ...ooX. ....XXooX. .XoooXX.   ",
"  .XXoo.  ...XXXooX    XoX.   ..",
".   Xo.    .XXXoo.   ...     ...",
"X.          .Xoo    .XXX.   ...X",
"XX    ...X.   XX  ..XXXXX.. ..XX",
"XXX  ...XXX.     .XXXXooX.. .XXX",
"Xo. ...oooo.     ..XXooo..  Xooo",
"oo  .XXXooo.     XXoXXooX.  XXoo",
"oo   .XXoo.  OO   XooXoXoo  OOoo",
"oOOOOOXoooX.OOOOOOOXXooooOOOOOOo"
};
