/* XPM */
static char *bl_mid[] = {
/* columns rows colors chars-per-pixel */
"32 32 5 1 ",
"  c #181425",
". c #3F2832",
"X c #743F39",
"o c #B86F50",
"O c None",
/* pixels */
"oooooooooooooooooooooooooooooooo",
"oooooXoXXXXooooX..XXXXXoo.X.XXoo",
"XXXoXXoo   .XX..XX   .XXoo. .XXo",
" ..XXooo..    .Xoo  .XXXooo. .XX",
" .XXXXooX..  .Xooo. ...oooo.  ..",
"  ..XXXXX..  .Xooo.  ...XXX.    ",
"    .XXX.   ..XXoo    ...X.   XX",
"o.   ...     ..XX.          .Xoo",
"ooX    XoX.   ..X   Xo.    .XXXo",
"ooX. .XoooXX.     .XXoo.  ...XXX",
"XoX  .XoooooX     ...ooX. ....XX",
"    .XXoooooX.    ....oo. ...XX.",
"   ..XXXoooo.  .X  ...XXX  ..XX ",
"  ....XXXXoX  XXoX  .XXX    .. .",
"  ...XXXXXX  XXXooX  .  Xoo   Xo",
".  ..XXXXXX .X.XXoo.   .XXoo  Xo",
". ...XXXXXX .X.XXoo.   .XXoo   X",
"  ...XXXXXX  XXXooX  .  Xoo     ",
"  ....XXXXoX  XXoX  .XXX    ..  ",
"   ..XXXoooo.  .X  ...XXX  ..XX ",
"    .XXoooooX.    ....oo. ...XX.",
"XoX  .XoooooX     ...ooX. ....XX",
"ooX. .XoooXX.     .XXoo.  ...XXo",
"ooX    XoX.   ...   Xo.    .XXoo",
"o.   ...     .....          .ooo",
"    .XXX.   ...X..    ...X.   XX",
"  ..XXXXX.. ..XXX..  ...XXX.    ",
" .XXXXooX.. .XXXXX. ...XXoo.  ..",
" ..XXooo..  XoooXX  .XXXXoo. .XX",
" XXoXXooX.  XXoooX   .XXoo. .XXo",
"  XooXoXoo  OOoooXXOOOXoo.XOXXoo",
"OOOXXooooOOOOOOoooOOOOooXOOOOXoo"
};
