/* XPM */
static char *_7[] = {
/* columns rows colors chars-per-pixel */
"58 58 15 1 ",
"  c #323443",
". c #23787E",
"X c #BD3B53",
"o c #A45B51",
"O c #E86363",
"+ c #36A57C",
"@ c #C58D71",
"# c #F29478",
"$ c #6D718E",
"% c #95A2B0",
"& c #E39B89",
"* c #DEB892",
"= c #FDCAAB",
"- c white",
"; c None",
/* pixels */
";;;;;;;;;;;;;;;;;;;;;;;;;;;;;;;;;;;;;;;;;;;;;;;;;;;;;;;;;;",
";;;;;;;;;;;;;;;;;;;;;;;;;;;;;;;;;;;;;;;;;;;;;;;;;;;;;;;;;;",
";;;;;;;;;;;;;;;;;;;;;;;;;;;;;;;;;;;;;;;;;;;;;;;;;;;;;;;;;;",
";;;;;;;;;;;;;;;       ;;;;;;;;;;;;;;;;;;;;;;;;;;;;;;;;;;;;",
";;;;;;;;;;;;;;;  OOOOO ;;;;;;;;;;;;;;;;;;;;;;;;;;;;;;;;;;;",
";;;;;;;;;;;;;;;  OOXXX ;;;;;;;;;;;;;;;;;;;;;;;;;;;;;;;;;;;",
";;;;;;;;;;;;;;;  XXX       ;;;;;;;;;;;;;;;;;;;;;;;;;;;;;;;",
";;;;;;;;;;;;;;;;;     XOOO                ;;;;;;;;;;;;;;;;",
";;;;;;;;;;;;;;;;;     XX    OOOOOOOOOOOOOO  ;;;;;;;;;;;;;;",
";;;;;;;;;;;;;;;  OOX     XXXXXOO#O#####OOOOO  ;;;;;;;;;;;;",
";;;;;;;;;;;;;;;  XXX   XXXOOOOOOOOOOO#OOOOOOO  ;;;;;;;;;;;",
";;;;;;;;;;;;;;;        XXXXOOOOOOOOO###O#OOOOO  ;;;;;;;;;;",
";;;;;;;;;;;;;;;      XXXXOOOOOOOOOOO###O#OOOOO  ;;;;;;;;;;",
";;;;;;;;;;;   ;;;;;  XXXXOOOOOOOOOOOOOOOOOOXOXX  ;;;;;;;;;",
";;;;;;;;;;; @@  ;;;  XXXXOOOOOOOOOOOOOOOOOOOOOX  ;;;;;;;;;",
";;;;;;;;;;; @@  ;;;  XXXXXXXXXOXOOOOOOOOOOOXXXX  ;;;;;;;;;",
";;;;;;;;;;;;  oo  ;  XXXXXOXOOOOOOOOOOOOOOOOOXX  ;;;;;;;;;",
";;;;;;;;;;;;  oo  ;  XXXXXXXXXXXXXXXXXXXXXXXXXX  ;;;;;;;;;",
";;;;;;;;;;;;      ;  XXXXXXXXXXXXXXXXXXXXXXXXXX  ;;;;;;;;;",
";;;;;;;;;;  %%$%$$     X                         ;;;;;;;;;",
";;;;;;;;;;  %%$%$$   XXXX                        ;;;;;;;;;",
";;;;;;;;;;                 &&&&&&&&&&&&&&&&&&&   ;;;;;;;;;",
";;;;;;;;             X   &&&===================  ;;;;;;;;;",
";;;;;;      $$$$$      &&&&&&==     ==&=&=    =  ;;;;;;;;;",
";;;;;;   $$$$$$$$$$    &========  =========  ==  ;;;;;;;;;",
";;;;      $$$$ $     &&&=======&&&===     =&&&=  ;;;;;;;;;",
";;;;   $$$$$$$$$$    & &=============     =====  ;;;;;;;;;",
";;                   & &&&=&========= --- =====  ;;;;;;;;;",
";;  oooooooooooooooo &&&&======================  ;;;;;;;;;",
";;  oooooooooooooooo    &&&&&&========&&&====&&  ;;;;;;;;;",
";;  oo@@@@@@@@@o@o     &&&&&==================&  ;;;;;;;;;",
";;  ooo@@@@@@ooo          &&&&&&&&&&&&&&&&&&&&    ;;;;;;;;",
";;  @@@@@@@@@@@@  ....       &&&&&&&&&&&&&&&      ;;;;;;;;",
";;  o@@@@@@@@@  ++++..  oo                  oo  ..  ;;;;;;",
";;  @@***@*@@@  +++...      ....        ..      ++  ;;;;;;",
";;  @@***@*@@@  +++++.  oo  ++++        +.  oo  .+  ;;;;;;",
";;  @@@*@@@@@@  +++++.  @@  ++++++    +++.  @@  .+  ;;;;;;",
";;  @@****@*@@  +++++.  @@  ++++ +    + +.  @@  .+  ;;;;;;",
";;  @@@@@@@@@@  +++     @@  ++++ +    + +.  @@  .+  ;;;;;;",
";;  @*@***@@@@  ++++    @@  ++++++    +++.  @@  .+  ;;;;;;",
";;  @@@@@@@@@@          @@  +++++++++++++.  @@      ;;;;;;",
";;  @@@@@@@@@@          @@  .+++++++++++..  @@      ;;;;;;",
";;  @@@@@@@@@@  &&&&    oo  +++++++++++++.  oo  &&  ;;;;;;",
";;  o@@@@@@o@o  ====    @@  ..+++++++.+...  @@  ==  ;;;;;;",
";;  @@@@@@@@@@@o        oo  .+++++++++++..  oo    ;;;;;;;;",
";;  ooo@@@@@oooo        oo  ..............  oo    ;;;;;;;;",
";;;;  @@@@@@@@ooooo                     .      ;;;;;;;;;;;",
";;;;  ooooooooooooo     oo  ..      . ....  oo ;;;;;;;;;;;",
";;;;;;                                         ;;;;;;;;;;;",
";;;;;;                                         ;;;;;;;;;;;",
";;;;;;;;;;;;;;;;;;;                            ;;;;;;;;;;;",
";;;;;;;;;;;;;;;;;;;                            ;;;;;;;;;;;",
";;;;;;;;;;;;;;;;;;;        ;;;;;;;;;;;;        ;;;;;;;;;;;",
";;;;;;;;;;;;;;;;;;;        ;;;;;;;;;;;;        ;;;;;;;;;;;",
";;;;;;;;;;;;;;;;;;;        ;;;;;;;;;;;;        ;;;;;;;;;;;",
";;;;;;;;;;;;;;;;;;;      ;;;;;;;;;;;;;;      ;;;;;;;;;;;;;",
";;;;;;;;;;;;;;;;;;;      ;;;;;;;;;;;;;;      ;;;;;;;;;;;;;",
";;;;;;;;;;;;;;;;;;;    ;;;;;;;;;;;;;;;;    ;;;;;;;;;;;;;;;"
};
