/* XPM */
static char *_[] = {
/* columns rows colors chars-per-pixel */
"80 72 2 1 ",
"  c white",
". c None",
/* pixels */
"................................................................................",
"................................................................................",
"................................................................................",
"..........................                    ..................................",
"........................                        ................................",
".......................                          ...............................",
".......................                          ...............................",
"......................                            ..............................",
"......................                            ..............................",
"......................                            ..............................",
"......................                            ..............................",
"......................                            ..............................",
"......................                            ..............................",
"......................                            ..............................",
"......................                            ..............................",
"......................                            ..............................",
"......................                            ..............................",
"......................                            ..............................",
"......................                            ..............................",
"......................                            ..............................",
"......................                            ..............................",
".................                                      .........................",
"...............                                          .......................",
"...............                                          .......................",
"..............                                            ......................",
"..............                                            ......................",
"..............                                            ......................",
"..............                                            ......................",
"..............                                            ......................",
"................                                        ........................",
"................                                        ........................",
"..................                                    ..........................",
"......................                            ..............................",
"......................                            ..............................",
".................                                    ...........................",
"...............                                        .........................",
"...............                                        .........................",
".............                                            .......................",
".............                                            .......................",
".............                                            .......................",
".............                                            .......................",
".............                                            .......................",
".............                                     .      .......................",
".............                                     .      .......................",
"..............                                    .      .......................",
"..............                                    .      .......................",
"................                                  .      .......................",
"................                                          ......................",
"....................                                      ......................",
"....................                                      ......................",
"....................                                      ......................",
"....................                                      ......................",
"....................                              .      .......................",
"....................                              ...  .........................",
"....................                              ...    .......................",
"....................                              . .... .......................",
"....................                              . .... .......................",
"....................                              .      .......................",
"....................                              .      .......................",
"....................                              ..............................",
"....................                              ..............................",
"....................                              ..............................",
"......................        ............        ..............................",
"........................      ...........         ..............................",
"........................     ............        ...............................",
".........................................     ..................................",
"................................................................................",
"................................................................................",
"................................................................................",
"................................................................................",
"................................................................................",
"................................................................................"
};
