/* XPM */
static char *_[] = {
/* columns rows colors chars-per-pixel */
"80 72 13 1 ",
"  c #323443",
". c #E1BD6E",
"X c #6D718E",
"o c #BC6D9F",
"O c #95A2B0",
"+ c #E39B89",
"@ c #E79AB4",
"# c #FFEE87",
"$ c #FFEF8E",
"% c #FDCAAB",
"& c #B8B7D4",
"* c white",
"= c None",
/* pixels */
"================================================================================",
"================================================================================",
"================================================================================",
"==========================                    ==================================",
"========================       XXXXXXXXXXXXXXX  ================================",
"=======================          X XXOXOOOOOOXX  ===============================",
"=======================    X XXXXXXXXOXOOOOOOXX  ===============================",
"======================        XXXXXXXXXXXXXOXXXX  ==============================",
"======================     XXXXXXXXXXXXOXOOOOOXX  ==============================",
"======================      XXXXXXXXXXXXXXXXXXXX  ==============================",
"======================   XXXXX              XXXX  ==============================",
"======================    XXXX              XXXX  ==============================",
"======================   XXX  &&&&********&&  XX  ==============================",
"======================     X  &*************  XX  ==============================",
"======================  XXXX  &&*   ****   *  XX  ==============================",
"======================   XXX  ***  &****  &*  XX  ==============================",
"======================  XXXX  ***   ****   *  XX  ==============================",
"======================  XXXX  &&*   ****   *  XX  ==============================",
"======================   XXX  &*************  XX  ==============================",
"======================  XXXX  &&&***********  XX  ==============================",
"======================  XXXXXX    * **  **  XXXX  ==============================",
"=================       XXXXXX    & &&  &&  XXXX       =========================",
"===============  XXXXX  XXXXXXXXXX    XX  XXXXXX  XXXXX  =======================",
"===============  XXXXX    X XXXXXXXXXXXXXXXXXX    XXXXX  =======================",
"==============  XX       XXXXXXXXXXXXXXXXXXXXXX     XXXX  ======================",
"==============  XX            X XXXXXXXXXXX X       XXXX  ======================",
"==============  XXXXXXXXXXXXXXXXXXXXXXXXXXXXXXXXXXXXXX    ======================",
"==============      X XXXXXXXXXXXXXXXXXXXXXXXXXXXXXXXXX   ======================",
"==============    XXXXXX                        XXXX      ======================",
"================  XXXX           %%        %%     XXXX  ========================",
"================                 ++        ++           ========================",
"==================      ++++++++++++++++++++++++      ==========================",
"======================  +++%%%%%%%%%%%%%%%%  +++  ==============================",
"======================  +++++%+%%  +%%%%%%%  +++  ==============================",
"=================       ++++%%%%%  +%%%%%%%  +++     ===========================",
"===============           +++++++  +++%+%%%            =========================",
"===============  ooooooo           ++%%%%%%     ooooo  =========================",
"=============  oo@@@@@@@oo         ++++++++  ooo@@@@@oo  =======================",
"=============  @@@@@@@@oooooooooo            oooo@@@@@@  =======================",
"=============  @@@@@@@@@@@@@@@@@@o          oo@@@@@@@@@  =======================",
"=============  @@@@     @@@@@@@@oooooo  ooooooo@   @@@@  =======================",
"=============  @@@@          @@@@@@@@o  @@@@@@@@   @@@@  =======================",
"=============  @@@@@          @    @@o  @@@  @@@  =  @@  =======================",
"=============  o@@@@       XO @@    @o  @@ ## @@  =  o@  =======================",
"==============  o@@@oooo X X   @    @o  @@ .. @@  =  oo  =======================",
"==============  o@@@@o@o XXX   @    @o  @@    @@  =  o@  =======================",
"================         X XO  @o  o@o  @@oooo@@  =  oo  =======================",
"================         XXXO      @@o  @@@@@@@@          ======================",
"====================  oo     @@@    @o  @@    @@    XXXXX ======================",
"====================  oo@@@@@@@@ ## @o  @@ ## @@      X X ======================",
"====================  ooooo@o@@@ .. @o  @@ .. @o   XXXXXX ======================",
"====================  ooo@@@@@@@o  o@o  @@o  o@@   OO  OO ======================",
"====================  ooooooo@@@@@@@@o  @@@@@@oo  =      =======================",
"====================  ooo@o@@@@@@@@@@o  @@@@@@@o  ===  =========================",
"====================  oooooooooooo          oooo  ===    =======================",
"====================   o           ..$$$$$$       = ==== =======================",
"====================  oooo  #  #      ..$.$  #    = ==== =======================",
"====================        .  .      .$$$$  .    =      =======================",
"====================  oo           ........       =      =======================",
"====================                              ==============================",
"====================                              ==============================",
"====================                              ==============================",
"======================        ============        ==============================",
"========================      ===========         ==============================",
"========================     ============        ===============================",
"=========================================     ==================================",
"================================================================================",
"================================================================================",
"================================================================================",
"================================================================================",
"================================================================================",
"================================================================================"
};
