/* XPM */
static char *_[] = {
/* columns rows colors chars-per-pixel */
"80 72 13 1 ",
"  c #323443",
". c #E1BD6E",
"X c #6D718E",
"o c #BC6D9F",
"O c #95A2B0",
"+ c #E39B89",
"@ c #E79AB4",
"# c #FFEE87",
"$ c #FFEF8E",
"% c #FDCAAB",
"& c #B8B7D4",
"* c white",
"= c None",
/* pixels */
"================================================================================",
"================================================================================",
"================================================================================",
"=========================                    ===================================",
"=======================       XXXXXXXXXXXXXXX  =================================",
"======================          X XXOXOOOOOOXX  ================================",
"======================    X XXXXXXXXOXOOOOOOXX  ================================",
"=====================        XXXXXXXXXXXXXOXXXX  ===============================",
"=====================     XXXXXXXXXXXXOXOOOOOXX  ===============================",
"=====================      XXXXXXXXXXXXXXXXXXXX  ===============================",
"=====================   XXXX              XXXXX  ===============================",
"=====================    XXX              XXXXX  ===============================",
"=====================   XX  &&&&********&&  XXX  ===============================",
"=====================       &*************  XXX  ===============================",
"=====================  XXX  &&*   ****   *  XXX  ===============================",
"=====================   XX  ***  &****  &*  XXX  ===============================",
"=====================  XXX  ***   ****   *  XXX  ===============================",
"=====================  XXX  &&*   ****   *  XXX  ===============================",
"=====================   XX  &*************  XXX  ===============================",
"=====================  XXX  &&&***********  XXX  ===============================",
"=====================  XXXXX    * **  **  XXXXX  ===============================",
"================       XXXXX    & &&  &&  XXXXX       ==========================",
"==============  XXXXX  XXXXXXXXX    XX  XXXXXXX  XXXXX  ========================",
"==============  XXXXX   X XXXXXXXXXXXXXXXXXX     XXXXX  ========================",
"=============  XX      XXXXXXXXXXXXXXXXXXXXXX      XXXX  =======================",
"=============  XX           X XXXXXXXXXXX X        XXXX  =======================",
"=============  XXXXXXXXXXXXXXXXXXXXXXXXXXXXXXXXXXXXXX    =======================",
"=============      X XXXXXXXXXXXXXXXXXXXXXXXXXXXXXXXXX   =======================",
"=============    XXXXXX                        XXXX      =======================",
"===============  XXXX           %%        %%     XXXX  =========================",
"===============                 ++        ++           =========================",
"=================       ++++++++++++++++++++++++     ===========================",
"======================  +++%%%%%%%%%%%%%%%  ++++  ==============================",
"======================  +++++%+%  +%%%%%%%  ++++  ==============================",
"==================      ++++%%%%  +%%%%%%%  ++++     ===========================",
"================          ++++++  +++%+%%%             =========================",
"================  oooooo          ++%%%%%%      ooooo  =========================",
"==============  oo@@@@@@oo        ++++++++  oooo@@@@@oo  =======================",
"==============  @@@@@@@ooooooooo            ooooo@@@@@@  =======================",
"==============  @@@@@@@@@@@@@@@@@          ooo@@@@@@@@@  =======================",
"==============  @@@@@   @@@@@@@@oooooo  ooooooo@   @@@@  =======================",
"==============  @@@@@   @@@@@@@@@@@@@o  @@@@@@@@     o@  =======================",
"==============  @@@@  oooo@@@@@@@  @@o  @@@  @@@  =  oo  =======================",
"==============  @@@@  oo@@@@@@@@ ## @o  @@ ## @@  =  o@  =======================",
"==============  @@@@  o     @@@@ .. @o  @@ .. @@  =  oo  =======================",
"==============  @@@@@        @@@    @o  @@    @@          ======================",
"==============  o@@@@      X @@@oo  @o  @@oooo@@    XXXXX ======================",
"===============  o@@ooo  X X    @@  @o  @@@@@@@@      X X ======================",
"===============  o@@o@o  XXX        @o  @@    @@   XXXXXX ======================",
"=================        X X @@  #  @o  @@ ## @@   OO  OO ======================",
"=================        XXX @@     @o  @@ .. @o  =      =======================",
"====================  o     @@@@o  o@o  @@o  o@@  ===  =========================",
"====================  ooooooo@@@@@@@@o  @@@@@@oo  ===    =======================",
"====================  ooo@o@@@@@@@@@@o  @@@@@@@o  = ==== =======================",
"====================  oooooooooooooooo  oooooooo  = ==== =======================",
"====================  oooooooooooo          oooo  =      =======================",
"====================   o           ..$$$$$$       =      =======================",
"====================  oooo  #  #      ..$.$  #    ==============================",
"====================        .  .      .$$$$  .    ==============================",
"====================  oo           ........       ==============================",
"====================                              ==============================",
"====================                              ==============================",
"=====================                             ==============================",
"========================       =========          ==============================",
"==========================     ========          ===============================",
"==========================    =========       ==================================",
"================================================================================",
"================================================================================",
"================================================================================",
"================================================================================",
"================================================================================",
"================================================================================"
};
