/* XPM */
static char *_8[] = {
/* columns rows colors chars-per-pixel */
"80 72 13 1 ",
"  c #323443",
". c #E1BD6E",
"X c #6D718E",
"o c #BC6D9F",
"O c #95A2B0",
"+ c #E39B89",
"@ c #E79AB4",
"# c #FFEE87",
"$ c #FFEF8E",
"% c #FDCAAB",
"& c #B8B7D4",
"* c white",
"= c None",
/* pixels */
"================================================================================",
"================================================================================",
"================================================================================",
"================================================================================",
"================================================================================",
"================================================================================",
"==========================                    ==================================",
"========================       XXXXXXXXXXXXXXX  ================================",
"=======================          X XXOXOOOOOOXX  ===============================",
"=======================    X XXXXXXXXOXOOOOOOXX  ===============================",
"======================        XXXXXXXXXXXXXOXXXX  ==============================",
"======================     XXXXXXXXXXXXOXOOOOOXX  ==============================",
"======================      XXXXXXXXXXXXXXXXXXXX  ==============================",
"======================   XXXXX              XXXX  ==============================",
"======================    XXXX              XXXX  ==============================",
"======================   XXX  &&&&********&&  XX  ==============================",
"======================     X  &*************  XX  ==============================",
"======================  XXXX  &&*   ****   *  XX  ==============================",
"======================   XXX  ***  &****  &*  XX  ==============================",
"======================  XXXX  ***   ****   *  XX  ==============================",
"======================  XXXX  &&*   ****   *  XX  ==============================",
"======================   XXX  &*************  XX  ==============================",
"======================  XXXX  &&&***********  XX  ==============================",
"======================  XXXXXX    * **  **  XXXX  ==============================",
"=================       XXXXXX    & &&  &&  XXXX       =========================",
"===============  XXXXX  XXXXXXXXXX    XX  XXXXXX  XXXXX  =======================",
"===============  XXXXX    X XXXXXXXXXXXXXXXXXX    XXXXX  =======================",
"==============  XX       XXXXXXXXXXXXXXXXXXXXXX     XXXX  ======================",
"==========      XX            X XXXXXXXXXXX X       XXXX  ======================",
"==========      XXXXXXXXXXXXXXXXXXXXXXXXXXXXXXXXXXXXXX    ======================",
"========== ===      X XXXXXXXXXXXXXXXXXXXXXXXXXXXXXXXXX   ======================",
"========== ===    XXXXXX                        XXXX      ======================",
"==========    ==  XXXX                            XXXX  ========================",
"============  ==                                        ========================",
"============  ====      +++%%%%%%%%%%%%%%%%%  ++      ==========================",
"==========      ======  +++++%+%%%  +%%%%%%%  ++  ==============================",
"========= XXXXX  ==     ++++%%%%%%  +%%%%%%%  ++      ==========================",
"========= X X    ==       ++++++++  +++%+%%%            ========================",
"========= XXXX     ooooo            ++%%%%%%    oooooo  ========================",
"=========          @@@@@oo          ++++++++  oo@@@@@@oo  ======================",
"=========        @@@@@@ooooooooooo            ooo@@@@@@@  ======================",
"==========  oo  @@@@@@@@@@@@@@@@@oo          o@@@@@@@@@@  ======================",
"==========  @o  @@@@@@@@@@@@@@@@oooooo  ooooooo@    @@@@  ======================",
"==========  oo  @@@@@@@@@@@@@@@@@@@@@o  @@@@@@@@      @@  ======================",
"==========  @o  @@@o   ooo@@@@@@@  @@o  @@@  @@@  ==  @@  ======================",
"==========  @@@@@@@o  oo@@@@@@@@ ## @o  @@ ## @@  ==  o@  ======================",
"==========  @@@@@@@o  ooo@o@@@@@ .. @o  @@ .. @@  ==  oo  ======================",
"==========  @@@@@@o   oo@@@@@@@@    @o  @@    @@  ==  o@  ======================",
"==========   @@@@@o   oo@@@@@@@@oooo@o  @@oooo@@  ==  oo  ======================",
"===========        =  o@@@@@@@@@@@@@@o  @@@@@@@@  =        =====================",
"=============      =  ooo@@@@@@@    @o  @@    @@  =        =====================",
"====================  oo@@@@@@@@ ## @o  @@ ## @@  =  XXXXX =====================",
"====================  ooooo@o@@@ .. @o  @@ .. @o  =    X X =====================",
"====================  ooo@@@@@@@o  o@o  @@o  o@@  = XXXXXX =====================",
"====================  ooooooo@@@@@@@@o  @@@@@@oo  ==      ======================",
"====================  ooo@o@@@@@@@@@@o  @@@@@@@o  ====  ========================",
"====================  oooooooooooooooo  oooooooo  ====  ========================",
"====================  oooooooooooo          oooo  ====    ======================",
"====================   o           ..$$$$$$       == ==== ======================",
"====================  oooo  #  #      ..$.$  #    == ==== ======================",
"====================        .  .      .$$$$  .    ==      ======================",
"====================  oo           ........       ==      ======================",
"====================                              ==============================",
"====================                              ==============================",
"====================                              ==============================",
"====================                              ==============================",
"====================        ==============        ==============================",
"====================        ==============        ==============================",
"====================        ==============        ==============================",
"====================      ================      ================================",
"====================      ================      ================================",
"====================    ==================    =================================="
};
