/* XPM */
static char *_0[] = {
/* columns rows colors chars-per-pixel */
"16 16 6 1 ",
"  c black",
". c #F76A22",
"X c #F77622",
"o c #FEAE34",
"O c #FEE761",
"+ c None",
/* pixels */
"++++++++++++++++",
"++++++++++++++++",
"++++++   +++++++",
"+++++ OXX ++++++",
"++++ OoOXX +++++",
"+++ OoOoXXX ++++",
"+++ o.oOXXX ++++",
"+++ o.oOXXX ++++",
"+++ o.oOXXX ++++",
"+++ o.oOXXX ++++",
"+++ oo.oXXX ++++",
"++++ oooXX +++++",
"+++++ XXX ++++++",
"++++++   +++++++",
"++++++++++++++++",
"++++++++++++++++"
};
