/* XPM */
static char *_1[] = {
/* columns rows colors chars-per-pixel */
"16 16 6 1 ",
"  c black",
". c #F76A22",
"X c #F77622",
"o c #FEAE34",
"O c #FEE761",
"+ c None",
/* pixels */
"++++++++++++++++",
"++++++++++++++++",
"++++++    ++++++",
"+++++ OOXX +++++",
"++++ oooOXX ++++",
"+++ ooOooOXX +++",
"+++ o.oOoOXX +++",
"+++ o.oOoOXX +++",
"+++ o.oOoOXX +++",
"+++ o.oOoOXX +++",
"+++ oo.ooOXX +++",
"++++ oooOXX ++++",
"+++++ ooXX +++++",
"++++++    ++++++",
"++++++++++++++++",
"++++++++++++++++"
};
