/* XPM */
static char *_4[] = {
/* columns rows colors chars-per-pixel */
"58 58 14 1 ",
"  c #323443",
". c #23787E",
"X c #BD3B53",
"o c #A45B51",
"O c #E86363",
"+ c #36A57C",
"@ c #C58D71",
"# c #F29478",
"$ c #6D718E",
"% c #95A2B0",
"& c #E39B89",
"* c #DEB892",
"= c #FDCAAB",
"- c None",
/* pixels */
"----------------------------------------------------------",
"----------------------------------------------------------",
"----------------------------------------------------------",
"----------------------------------------------------------",
"----------------------------------------------------------",
"----------------------------------------------------------",
"----------------------------------------------------------",
"--------------       -------------------------------------",
"--------------  OOOOO ------------------------------------",
"--------------  OOXXX     --------------------------------",
"--------------  XXX  XOOO                  ---------------",
"----------------     XX    OOOOOOOOOOOOOOOO  -------------",
"----------------        XXXXXOOO#O#####OOOOOO  -----------",
"--------------  OOX   XXXOOOOOOOOOOOO#OOOOOOOO  ----------",
"--------------  XXX   XXXXOOOOOOOOOO###O#OOOOOO  ---------",
"--------------      XXXXOOOOOOOOOOOO###O#OOOOOO  ---------",
"-----------         XXXXOOOOOOOOOOOOOOOOOOOOXOXX  --------",
"----------- @@  --  XXXXOOOOOOOOOOOOOOOOOOOOOOOX  --------",
"----------- @@  --  XXXXXXXXXOXOOOOOOOOOOOOOXXXX  --------",
"------------  oo    XXXXXOXOOOOOOOOOOOOOOOOOOOXX  --------",
"------------  oo    XXXXXXXXXXXXXXXXXXXXXXXXXXXX  --------",
"------------        XXXXXXXXXXXXXXXXXXXXXXXXXXXX  --------",
"----------  %%$%$$    X                           --------",
"----------  %%$%$$  XXXX                          --------",
"---------                 &&&&&&&&&&&&&&&&&&&&&   --------",
"-------             X   &&&&====================  --------",
"-----       $$$$$     &=======     ===&=&==    =  --------",
"-----   $$$$$$$$$$  &&&========  ===========  ==  --------",
"---      $$$$$ $    & &=======&&&====     ==&&&=  --------",
"---   $$$$$$$$$$$   & &&&=&=====================  --------",
"-                   &&&&==============&&&=======  --------",
"-  oooooooooooooooo    &&&&&&=================&&  --------",
"-  ooooooooooooooooo  &&&&&====================&  --------",
"-  oo@@@@@@@@@o@oo       &&&&&&&&&&&&&&&&&&&&&&  ---------",
"-  ooo@@@@@@oooooo          &&&&&&&&&&&&&&&&&   ----------",
"-  @@@@@@@@@@@@o  ....                            --------",
"-  o@@@@@@@@@@oo  ++..  oo                  oo    --------",
"-  @@***@*@@@@  +++...      ....       ...      ..  ------",
"-  @@***@*@@@@  +++++.  oo  ++++       ++.  oo  ++  ------",
"-  @@@*@@@@@@@  +++++.  @@  ++++++   ++++.  @@  .+  ------",
"-  @@****@*@@@  +++++.  @@  ++++ +   + ++.  @@  .+  ------",
"-  @@@@@@@@@@@  +++     @@  ++++ +   + ++.  @@  .+  ------",
"-  @*@***@@@@@  ++++    @@  .+++++   ++...  @@  .+  ------",
"-  @@@@@@@@@@@          oo  +++++++++++++.  oo      ------",
"-  @@@@@@@@@@@          @@  ..++++++.+....  @@      ------",
"-  o@@@@@@o@oo  &&&&    oo  .++++++++++...  oo  &&  ------",
"-  @@@@@@@@@@@  ====    oo  ..............  oo  ==  ------",
"-  ooo@@@@@ooooo                       .          --------",
"---  @@@@@@@@ooo        oo  ..     . .....  oo    --------",
"---  ooooooooooooo                              ----------",
"-----                                           ----------",
"-----                                           ----------",
"-------------------                             ----------",
"-------------------        -------------       -----------",
"-------------------        ------------        -----------",
"-------------------      --------------      -------------",
"-------------------      ---------------------------------",
"-------------------    -----------------------------------"
};
