/* XPM */
static char *_6[] = {
/* columns rows colors chars-per-pixel */
"58 58 14 1 ",
"  c #323443",
". c #23787E",
"X c #BD3B53",
"o c #A45B51",
"O c #E86363",
"+ c #36A57C",
"@ c #C58D71",
"# c #F29478",
"$ c #6D718E",
"% c #95A2B0",
"& c #E39B89",
"* c #DEB892",
"= c #FDCAAB",
"- c None",
/* pixels */
"----------------------------------------------------------",
"----------------------------------------------------------",
"----------------------------------------------------------",
"----------------------------------------------------------",
"----------------------------------------------------------",
"---------------       ------------------------------------",
"---------------  OOOOO -----------------------------------",
"---------------  OOXXX     -------------------------------",
"---------------  XXX  XOOO                ----------------",
"-----------------     XX    OOOOOOOOOOOOOO  --------------",
"-----------------        XXXXXOO#O#####OOOOO  ------------",
"---------------  OOX   XXXOOOOOOOOOOO#OOOOOOO  -----------",
"---------------  XXX   XXXXOOOOOOOOO###O#OOOOO  ----------",
"---------------      XXXXOOOOOOOOOOO###O#OOOOO  ----------",
"---------------      XXXXOOOOOOOOOOOOOOOOOOXOXX  ---------",
"-----------   -----  XXXXOOOOOOOOOOOOOOOOOOOOOX  ---------",
"----------- @@  ---  XXXXXXXXXOXOOOOOOOOOOOXXXX  ---------",
"----------- @@  ---  XXXXXOXOOOOOOOOOOOOOOOOOXX  ---------",
"------------  oo  -  XXXXXXXXXXXXXXXXXXXXXXXXXX  ---------",
"------------  oo  -  XXXXXXXXXXXXXXXXXXXXXXXXXX  ---------",
"------------      -    X                         ---------",
"----------  %%$%$$   XXXX                        ---------",
"----------  %%$%$$         &&&&&&&&&&&&&&&&&&&   ---------",
"----------           X   &&&===================  ---------",
"--------               &&&&&&==     ==&=&=    =  ---------",
"------      $$$$$      &========  =========  ==  ---------",
"------   $$$$$$$$$$  &&&=======&&&=====   =&&&=  ---------",
"----      $$$$ $     & &=======================  ---------",
"--                   & &&&=&===========&&======  ---------",
"--  oooooooooooooooo &&&&======================  ---------",
"--  oooooooooooooooo    &&&&&&===============&&  ---------",
"--  oo@@@@@@@@@o@oooo  &&&&&==================&  ---------",
"--  ooo@@@@@@oooooo       &&&&&&&&&&&&&&&&&&&&  ----------",
"--  @@@@@@@@@@@@ooo          &&&&&&&&&&&&&&&   -----------",
"--  o@@@@@@@@@@oo  ....                          ---------",
"--  @@***@*@@@@@@  ++..  oo                oo    ---------",
"--  @@***@*@@@@  +++...      ....      ..      ..  -------",
"--  @@@*@@@@@@@  +++++.  oo  ++++      +.  oo  ++  -------",
"--  @@****@*@@@  +++++.  @@  ++++++  +++.  @@  .+  -------",
"--  @@@@@@@@@@@  +++++.  @@  ++++ +  + +.  @@  .+  -------",
"--  @*@***@@@@@  +++     @@  ++++ +  + +.  @@  .+  -------",
"--  @@@@@@@@@@@  ++++    @@  .+++++  ++..  @@  .+  -------",
"--  @@@@@@@@@@@          oo  +++++++++++.  oo      -------",
"--  @@@@@@@@@@@          @@  ..+++++.+...  @@      -------",
"--  o@@@@@@o@oo  &&&&    oo  .+++++++++..  oo  &&  -------",
"--  @@@@@@@@@@@  ====    oo  ............  oo  ==  -------",
"--  ooo@@@@@ooooo                      .         ---------",
"----  @@@@@@@@ooo        oo  ..    . ....  oo    ---------",
"----  ooooooooooooo                            -----------",
"------                                         -----------",
"------                                         -----------",
"-------------------                            -----------",
"-------------------        ------------        -----------",
"-------------------        ------------        -----------",
"-------------------        ------------        -----------",
"-------------------      --------------      -------------",
"-------------------      --------------      -------------",
"-------------------    ----------------    ---------------"
};
