/* XPM */
static char *mid_tl[] = {
/* columns rows colors chars-per-pixel */
"32 32 5 1 ",
"  c #181425",
". c #3F2832",
"X c #743F39",
"o c #B86F50",
"O c None",
/* pixels */
"O      .X  ......XXX.  ...Xo. OO",
"OXX   XXoX ...    ..     ..XX OO",
"ooX  .Xooo     ..X   XXX   .. OO",
"ooX. ..XooX   .oooX  XXoo    .XO",
"oooX ...oo.  .Xoooo ...ooX  ..Xo",
"ooXX  ..Xo   ..Xooo ...XoX  ..oo",
"oXX.  ..X. ...Xooo.  .XXX  ..XXo",
"oX.    ..  ...Xoo.    X.  ...XXo",
"oX. .o    ...XXX.   .       ...o",
"OX XXoo     ...    .o.  ooo.  .o",
"OO .XXX.        . .XXo .Xooo.  O",
"O   ..X.  oooooXX ....  .Xoo.  O",
"Oo   ..  oooooXXX  ...  .XX.  Xo",
"oo.      ooooXX..       ...  .oo",
"ooo      XooXX..  ooo        ooo",
"oX..      XoX..  oooX.      ..oo",
"oXXX  ..   ...    ...   ..  ..Xo",
"oX.  .oo.              .oo.  ..o",
"o.. .oooXX.          ..oooX.  .o",
"O   .ooXXX..  .oo.  ..oooXX.    ",
"OO  .oXXXX.. .XooX. ..oooX..   O",
"OO  ..XX..   .oooo.   ..XX..  OO",
"OO   ....     ....     ....   OO",
"O.o.          ....          .. O",
"OoooX    XoX   ..   ...    XXoXO",
"oooXX.  .ooXXX    XXXX..  .XXooo",
"oooX..  ooooXX    XooX..  ..XXoo",
"oo....  ooXXXXX  XooXXX.  ...ooo",
"o....   ooXX..XX oooo...   ....o",
"O ..    ..X..... XX.....    .. O",
"O   Xo.   .....  .....   .oX  OO",
"O   oo..   ...    ...   ..oX  OO"
};
