/* XPM */
static char *tl[] = {
/* columns rows colors chars-per-pixel */
"32 32 5 1 ",
"  c #181425",
". c #3F2832",
"X c #743F39",
"o c #B86F50",
"O c None",
/* pixels */
"oooooooooooooooooooooooooooooooo",
"oooooXoXXXXooooX..XXXXXoo.X.XXoo",
"oXXoXXoo   .XX..XX   .XXoo. .XXo",
"o..XXooo..    .Xoo  .XXXooo. .Xo",
"O.XXXXooX..  .Xooo. ...oooo.  .o",
"O ..XXXXX..  .Xooo.  ...XXX.   O",
"O   .XXX.   ..XXoo    ...X.   XO",
"Oo.  ...     ..XX.          .Xoo",
"ooX.   XoX.   ..X   Xo.    .XXXo",
"ooX. .XoooXX.     .XXoo.  ...XXo",
"oXX. .XoooooX     ...ooX. ....Xo",
"oo. .XXoooooX.    ....oo. ...XXo",
"O. ..XXXoooo.  .X  ...XXX  ..XXO",
"O ....XXXXoX  XXoX  .XXX    .. O",
"O ...XXXXXX  XXXooX  .  Xoo    O",
"O  .XX      .X.XXoo.   .XXoo   O",
"O      .X  ......XXX.  ...Xo. OO",
"OXX   XXoX ...    ..     ..XX OO",
"ooX  .Xooo     ..X   XXX   .. OO",
"ooX. ..XooX   .oooX  XXoo    .XO",
"oooX ...oo.  .Xoooo ...ooX  ..Xo",
"ooXX  ..Xo   ..Xooo ...XoX  ..oo",
"oXX.  ..X. ...Xooo.  .XXX  ..XXo",
"oX.    ..  ...Xoo.    X.  ...XXo",
"oX. .o    ...XXX.   .       ...o",
"OX XXoo     ...    .o.  ooo.  .o",
"OO .XXX.        . .XXo .Xooo.  O",
"O   ..X.  oooooXX ....  .Xoo.  O",
"Oo   ..  oooooXXX  ...  .XX.  Xo",
"oo.      ooooXX..       ...  .oo",
"ooo      XooXX..  ooo        ooo",
"oX..      XoX..  oooX.      ..oo"
};
