/* XPM */
static char *FX052_02[] = {
/* columns rows colors chars-per-pixel */
"32 32 2 1 ",
"  c white",
". c None",
/* pixels */
"................................",
"................................",
"................................",
"................................",
"................................",
"................................",
"................................",
"................................",
"................................",
"................................",
"................................",
"................................",
"................................",
"................................",
"................................",
"................................",
"................................",
"................................",
"................................",
"................................",
"................................",
"................................",
"................................",
"................................",
"................................",
"..........   ........  .........",
".........     ......    ........",
"........      ....      ........",
".... ...      ...      .........",
"...   ....   ....    .....   ...",
"..     ........ .........     ..",
"...     ...  .......  ...     .."
};
