/* XPM */
static char *red_pirate[] = {
/* columns rows colors chars-per-pixel */
"16 16 10 1 ",
"  c #1C1117",
". c #30346D",
"X c #4E4A4E",
"o c #757161",
"O c #854C30",
"+ c #D04648",
"@ c #BF9F81",
"# c #8595A1",
"$ c white",
"% c None",
/* pixels */
"%%%%        %%%%",
"%%%  ooooooo %%%",
"%%% oooooooo %%%",
"%%% @@@ @@@oo %%",
"%%% @@@@ @@oo %%",
"%%% .@@@   oo %%",
"%%% .@@@      %%",
"%% oo@@@   XX %%",
"%% +ooooooXX+ %%",
"%% +oXXooXX++ %%",
"%%% +ooXX+++ %%%",
"%%% +ooX+++++ %%",
"%% ++$o$$++++ %%",
"%% ++####+++++ %",
"%%  XX    O    %",
"%%%    %%   %%%%"
};
