/* XPM */
static char *bot_tl[] = {
/* columns rows colors chars-per-pixel */
"32 32 5 1 ",
"  c #181425",
". c #3F2832",
"X c #743F39",
"o c #B86F50",
"O c None",
/* pixels */
"oXXX  ..   ...    ...   ..  ..Xo",
"oX.  .oo.              .oo.  ..o",
"o.. .oooXX.          ..oooX.  .o",
"O   .ooXXX..  .oo.  ..oooXX.    ",
"OO  .oXXXX.. .XooX. ..oooX..   O",
"OO  ..XX..   .oooo.   ..XX..  OO",
"OO   ....     ....     ....   OO",
"O.o.          ....          .. O",
"OoooX    XoX   ..   ...    XXoXO",
"oooXX.  .ooXXX    XXXX..  .XXooo",
"oooX..  ooooXX    XooX..  ..XXoo",
"oo....  ooXXXXX  XooXXX.  ...ooo",
"o....   ooXX..XX oooo...   ....o",
"O ..    ..X..... XX.....    .. O",
"O   Xo.   .....  .....   .oX  OO",
"O   oo..   ...    ...   ..oX  OO",
"OX ooX.                  .XX.  O",
"ooX .X.       ..o.       .X.. oo",
"oX. .X  XXX   .oo.   XX.  X. XXo",
"oo.    XooX  .XooX.  Xoo.    .Xo",
"Oo    XooX.. .oooo. XXoo..   ..O",
"O     XoXX.. .oooo. ..ooo.    OO",
"O     X....  .XooX.  .....    OO",
"OXoo  ...     .XX.     ...  oooO",
"ooooo          ..          Xoooo",
"oooooo   XX          ..   XXXooo",
"ooXXoo  XX            ..  ..XXoo",
"oXX..X X..   .  ...   ... ...XXo",
"OX...  X.  ..X. ooX..  ..  ..XXO",
"OO..      ..XX. ooXX..       . O",
"OO        .XXXo. oXX..        OO",
"OooX       .XX.  ....         OO"
};
