/* XPM */
static char *bot[] = {
/* columns rows colors chars-per-pixel */
"32 32 5 1 ",
"  c #181425",
". c #3F2832",
"X c #743F39",
"o c #B86F50",
"O c None",
/* pixels */
"                                ",
"                                ",
"                                ",
"                                ",
"                                ",
"                                ",
"            ...               ..",
"X         ...XXX.           ..XX",
"oX     ..  ...Xoo.    X.  ..XXXX",
"oXX   ..X. ...Xooo.  .XXX  ..XXX",
"ooXX  ..Xo   ..Xooo ...XoX  ..oo",
"oooX ...oo.  .Xoooo ...ooX  ..Xo",
"ooX. ..XooX   .oooX  XXoo    .XX",
"oo.  .Xooo     ..X   XXX   .. . ",
"oo    XXoX ...    ..     ..XX   ",
"X.     .X  ......XXX.  ...Xo.   ",
".  .XX      .X.XXoo.   .XXoo    ",
"  ...XXXXXX  XXXooX  .  Xoo     ",
"  ....XXXXoX  XXoX  .XXX    ..  ",
"   ..XXXoooo.  .X  ...XXX  ..XX ",
"    .XXoooooX.    ....oo. ...XX.",
"XoX  .XoooooX     ...ooX. ....XX",
"ooX. .XoooXX.     .XXoo.  ...XXo",
"ooX    XoX.   ...   Xo.    .XXoo",
"o.   ...     .....          .ooo",
"    .XXX.   ...X..    ...X.   XX",
"  ..XXXXX.. ..XXX..  ...XXX.    ",
" .XXXXooX.. .XXXXX. ...XXoo.  ..",
" ..XXooo..  XoooXX  .XXXXoo. .XX",
" XXoXXooX.  XXoooX   .XXoo. .XXo",
"  XooXoXoo  OOoooXXOOOXoo.XOXXoo",
"OOOXXooooOOOOOOoooOOOOooXOOOOXoo"
};
