/* XPM */
static char *bot_right[] = {
/* columns rows colors chars-per-pixel */
"32 32 5 1 ",
"  c #181425",
". c #3F2832",
"X c #743F39",
"o c #B86F50",
"O c None",
/* pixels */
"     ...  ooo   .     o      XOO",
"         Xoooo       ooo   ..XOO",
"         XXoX.   ..  XXXX .X.XOO",
"          XX.   ....  .   .XXooO",
"                X....    .XXXXoO",
"     ..    ...  XX.XX.. .XXXoXXO",
"  ...oo  ....XX  XXXXXX .XXooooO",
"X..XXo  ....XoX. XXXoooX.XXoooXO",
"XXXXoo  .XXooooX XXooooo .XX. OO",
"XXXoo.   .ooooX  XXooooX  ...OOO",
"Xooo.  .   .X    XooooX.  ..  XO",
"ooo.   ...    ..  XoooX      .oo",
"...   ....    ...  .XX.  .   Xoo",
"      .X....  ..XX  .   .... Xoo",
" ..   .XXX.X.  ..XX    ..XXX..oo",
" ....  XooXoo. .XXX.   .XXooX.XO",
"....X. .ooooo. .XooX   XXooooXOO",
"...XXoo .ooooX XooX     .ooooXOO",
".XXXXoo  .ooX .XoX  ...   ..  OO",
"XXXooooo      .X.  ...X        O",
"Xooooooo  ..   .  ....XX   ..XX ",
".ooXoo.  ...XX   .X..ooo  ..XXXX",
" ..     XX..XX    XXooo. ...XXXo",
"    ..  .XXooX .. XXoX.  ..oXXoo",
"  ...Xo  Xooo  .XX X..   .XooooX",
"  .XXoo   XX  ..Xo       XXooo.O",
"  .Xooo .     .Xoo  ...  .Xoo.OO",
"   .oo. ..   .Xoo  ....X  ... .O",
"..  .. ..... .X.  ...XXX.    .XO",
"XX.    .XXX..     ..XXXXo   .XXo",
"oXX.  .oXoooX.     XXXoooX .XXoO",
"oXOOOOOoooXXXOOOOOOO.oo.OO..OOOO"
};
