/* XPM */
static char *bl_right[] = {
/* columns rows colors chars-per-pixel */
"32 32 5 1 ",
"  c #181425",
". c #3F2832",
"X c #743F39",
"o c #B86F50",
"O c None",
/* pixels */
"oooooooooooooooooooooooooooooooo",
"X.XXoooooooXoXXXXooooX..XXXXXoo.",
". .XXoXXXoXXoo   .XX..XX   .XXoo",
"o. .XX ..XXooo..    .Xoo  .XXXoo",
"o.  .. .XXXXooX..  .Xooo. ...ooo",
"X.      ..XXXXX..  .Xooo.  ...XX",
".   XX    .XXX.   ..XXoo    ...X",
"  .Xooo.   ...     ..XX.        ",
" .XXXoooX    XoX.   ..X   Xo.   ",
"...XXXooX. .XoooXX.     .XXoo.  ",
"....XXXoX  .XoooooX     ...ooX. ",
"...XX.    .XXoooooX.    ....oo. ",
" ..XX    ..XXXoooooo..X  ...XXX ",
"  .. ..  ...XXXXooooXXoX  .XXX  ",
"o   Xoo.   XXXXXooooXXooX  .  Xo",
"oo  XoX.     XXXXoooooXoo.   .XX",
"oo   X. ..X. .XXXoooooXooX   XXo",
"o      ..XXoo .XXooXooooX     .o",
"  ..  .XXXXoo  .XXX..XoX  ...   ",
" ..XX XXXooooo      .X.  ...X   ",
"...XX.Xooooooo  ..   .  ....XX  ",
"....XX.ooXoo.  ...XX   .X..ooo  ",
"...XXo ..     XX..XX    XXooo. .",
" .XXoo    ..  .XXooX .. XXoX.  .",
"  .ooo  ...Xo  Xooo  .XX X..   .",
".   XX  .XXoo   XX  ..Xo       X",
"X.      .Xooo .     .Xoo  ...  .",
"o.  ..   .oo. ..   .Xoo  ....X  ",
"o. .XX..  .. ..... .X.  ...XXX. ",
". .XXoXX.    .XXX..     ..XXXXo ",
"XOXXoooXX.  .oXoooX.     XXXoooX",
"OOOXoooXOOOOOoooXXXOOOOOOO.oo.OO"
};
