/* XPM */
static char *right[] = {
/* columns rows colors chars-per-pixel */
"32 32 5 1 ",
"  c #181425",
". c #3F2832",
"X c #743F39",
"o c #B86F50",
"O c None",
/* pixels */
"           .X.    ...   ..  ..Xo",
"          .XXX.        .oo.  ..o",
"     XXo   ...       ..oooX. ..o",
"    ..Xoo.    Xoo.  ..oooXX.   o",
"    ..Xo.    XoooX. ..oooX..   O",
"     ...     XXXoo.   ..XX..  OO",
"            .XX...     ....   OO",
"             .....          .. O",
"       ..     ...   ...    XXoXO",
"     ...oo        XXXX..  .XXooo",
"     ..oooo.      XooX..  ..XXoo",
"    ...XXXoo.    XooXXX.  ...ooo",
"    ....XXoo.   .oooo...   ....o",
"     ....Xoo    .XX.....    .. O",
"       ..oo     ......   .oX  OO",
"             ..   ...   ..oX  OO",
"            XXX.         .XX.  O",
"     oo.   .XXXoo.       .X.. oo",
"   .XXooo. .XXXoo.   XX.  X. XXo",
"  ...XXoo. ...XXoX.  Xoo.    .Xo",
"  ....Xo.   ..XXoo. XXoo..   ..O",
"   ....XX   .XXooo. ..ooo.    OO",
"     ....  ...oooX.  .....    OO",
"      ...  ...ooX.     ...  oooO",
"          ...XX..          Xoooo",
"            ..       ..   XXXooo",
"    .Xoooo            ..  ..XXoo",
"   .XXXoooo.   .o..   ... ...XXo",
"  ...XXXXXo.  ..ooX..  ..  ..XXO",
"  .....XXXX   .oooXX..       . O",
"   .....XXX    ..oXX..        OO",
"    .....        ....         OO"
};
