/* XPM */
static char *top[] = {
/* columns rows colors chars-per-pixel */
"32 32 5 1 ",
"  c #B86F50",
". c #743F39",
"X c #3F2832",
"o c #181425",
"O c white",
/* pixels */
"                                ",
"     . ....    .XX.....  X.X..  ",
"... ..  oooX..XX..oooX..  XoX.. ",
"oXX..   XXooooX.  ooX...   XoX..",
"oX....  .XXooX.   XoXXX    XooXX",
"ooXX.....XXooX.   XooXXX...Xoooo",
"ooooX...XoooXX..  ooooXXX.Xooo..",
" XoooXXXoooooXX..XooooooooooX.  ",
"  .oooo. .XoooXX.ooo. XooooX... ",
"  .XoX.   ..XoooooX..  XooXXX...",
". .ooX.     .oooooXXX  .XoXXXX..",
"ooooX..     .XooooXXXX  XoXXX..X",
"oooXX...    XooX.ooXXX...ooXX..o",
"ooXXXX.... .oo.. .ooX...ooooXXoo",
"ooXXX......oo...  .ooXoo.  ooooo",
"XooX..ooooooX.X..  XoooX..  oooX",
".XoooooX.ooXXXXXX...XooXXX. XoX.",
"  oooo.. .oXXXooooXXoooooXX..oX ",
"  XooX.   oooooXX.ooo...oooXXoX ",
"  .XoXX.  .oooX   .oo..  ooooX..",
"   .oXXX  XooX.    oXXX  .ooXX. ",
"  ..ooXX. oooXX.   oXXX. .ooXX  ",
" ..oooXX.XoXXX.   XooX...ooXX...",
" .oooooXXooXXX.  Xoooo.XooXXX.. ",
".oooooooooXXX...XoooooooooooXXX.",
"ooooooooooooXXXoooooooooooooooXX",
"oooooooooooooooooooooooooooooooo",
"oooooooooooooooooooooooooooooooo",
"oooooooooooooooooooooooooooooooo",
"oooooooooooooooooooooooooooooooo",
"oooooooooooooooooooooooooooooooo",
"oooooooooooooooooooooooooooooooo"
};
