/* XPM */
static char *top_left[] = {
/* columns rows colors chars-per-pixel */
"32 32 5 1 ",
"  c #181425",
". c #3F2832",
"X c #743F39",
"o c #B86F50",
"O c None",
/* pixels */
"Oooooooooooooooooooooooooooooooo",
"oooooXoXXXXooooX..XXXXXoo.X.XXoo",
"XXXoXXoo   .XX..XX   .XXoo. .XXo",
"O..XXooo..    .Xoo  .XXXooo. .XX",
"O.XXXXooX..  .Xooo. ...oooo.  ..",
"O ..XXXXX..  .Xooo.  ...XXX.    ",
"O   .XXX.   ..XXoo    ...X.   XX",
"Oo.  ...     ..XX.          .Xoo",
"ooX.   XoX.   ..X   Xo.    .XXXo",
"ooX. .XoooXX.     .XXoo.  ...XXX",
"oXX. .XoooooX     ...ooX. ....XX",
".X. .XXoooooX.    ....oo. ...XX.",
"O. ..XXXoooo.  .X  ...XXX  ..XX ",
"O ....XXXXoX  XXoX  .XXX    ..  ",
"O ...XXXXXX  XXXooX  .  Xoo     ",
"O  .XX      .X.XXoo.   .XXoo   .",
"O      .X  ......XXX.  ...Xo. .X",
"OXX   XXoX ...    ..     ..XX .o",
"XoX. .Xooo     ..X   XXX   .. .o",
"ooX. ..XooX   .oooX  XXoo    .XX",
"oooX ...oo.  .Xoooo ...ooX  ..Xo",
"ooXX  ..Xo   ..Xooo ...XoX  ..oo",
"oXX.  ..X. ...Xooo.  .XXX  ..XXX",
"oX.    ..  ...Xoo.    X.  ...XXo",
"XX. .o    ...XXX.   .o      ...X",
"OX XXoo     ...    .ooo       ..",
"OO .XXX.          .XXXo.        ",
"O   ..X.  oooooX  ....o         ",
"Oo   ..  oooooXXX  ...  Xoo     ",
"oo.      ooooXX..      ooooo    ",
"ooo      XooXX..  ooo  oo..o    ",
"oX..      XoX..  oooX. .XX..    "
};
