/* XPM */
static char *bot_left[] = {
/* columns rows colors chars-per-pixel */
"32 32 5 1 ",
"  c #181425",
". c #3F2832",
"X c #743F39",
"o c #B86F50",
"O c None",
/* pixels */
"OoX.  oX   ...    XX.   ...     ",
"ooXX ooX. XoX..  oooX. .XX..    ",
"ooo.  oX XooXX..  ooo  oo..o    ",
"oo.      ooooXX..      ooooo    ",
"Oo   ..  oooooXXX  ...  Xoo     ",
"O   ..X.  oooooX  ....o    X    ",
"OO .XXX.          .XXXo. Xo.    ",
"OX XXoo     ...    .ooo Xo.   ..",
"XX. .o    ...XXX.   .o   X  ...X",
"oX.    ..  ...Xoo.    X.  ...XXo",
"oXX.  ..X. ...Xooo.  .XXX  ..XXX",
"ooXX  ..Xo   ..Xooo ...XoX  ..oo",
"oooX ...oo.  .Xoooo ...ooX  ..Xo",
"ooX. ..XooX   .oooX  XXoo    .XX",
"XoX. .Xooo     ..X   XXX   .. .o",
"OXX   XXoX ...    ..     ..XX .o",
"O      .X  ......XXX.  ...Xo. .X",
"O  .XX      .X.XXoo.   .XXoo   .",
"O ...XXXXXX  XXXooX  .  Xoo     ",
"O ....XXXXoX  XXoX  .XXX    ..  ",
"O. ..XXXoooo.  .X  ...XXX  ..XX ",
".X. .XXoooooX.    ....oo. ...XX.",
"oXX. .XoooooX     ...ooX. ....XX",
"ooX. .XoooXX.     .XXoo.  ...XXX",
"ooX.   XoX.   ...   Xo.    .XXXo",
"Oo.  ...     ...X.          .Xoo",
"O   .XXX.   ...XXX    ...X.   XX",
"O ..XXXXX..  .XXXXX  ...XXX.    ",
"O.XXXXooX..  .XXXo. ...oooo.    ",
"O..XXooo..   oXXoo  .XXXooo.    ",
"OOOoXXoo.    ooooo   .XXoo.  OO ",
"OOOOXooo OOOOOoooOOOOOXoooX.OOOO"
};
