/* XPM */
static char *left[] = {
/* columns rows colors chars-per-pixel */
"32 32 5 1 ",
"  c #181425",
". c #3F2832",
"X c #743F39",
"o c #B86F50",
"O c None",
/* pixels */
"oXXX  ..   ...   oXX..  ...     ",
"oX.  .oo.        .XXX.          ",
"... .oooXX.       ...  .ooX     ",
"O   .ooXXX..  .ooX    .ooX..    ",
"OO  .oXXXX.. .XoooX    oX...    ",
"OO  ..XX..   .ooXXX    ....     ",
"OO   ....     ...XX.    ..      ",
"O.o.          .....             ",
"OoooX    XoX   ...     oo       ",
"oooXX.  .ooXXX       ooooXX     ",
"oooX..  ooooXX      .oooXXX     ",
"oo....  ooXXXXX    XoooXXX..    ",
".....   ooXX..XX   .oooX....    ",
"O ..    ..X.....    XoXX...     ",
"O   Xo.   ......     .XX.       ",
"O   oo..   ...   ..             ",
"OX ooX.         .oXX            ",
"ooX .X.       ..ooXX.   oX.     ",
"oX. .X  XXX   .ooXXX. .ooX..    ",
"oo.    XooX  .XoXX... ooXXX..   ",
"Oo    XooX.. .oooX..  ooXXX..   ",
"O     XoXX.. .oooX..  .ooXX.    ",
"O     X....  .Xooo...  XoX.     ",
"OXoo  ...     .XoXX..  .XX      ",
"Xoooo          ..XX...          ",
"oooooo   XX       ..            ",
"ooXXoo  XX            oooX..    ",
"oXX..X X..   ..o.   .ooXX....   ",
"OX...  X.  ..Xoo..  .ooXXX....  ",
"OO..      ..XXooo.   oXXXX....  ",
"OO        ..XXo..    .X.XXX.    ",
"OooX       .XX.          XX.    "
};
