/* XPM */
static char *top_right[] = {
/* columns rows colors chars-per-pixel */
"32 32 5 1 ",
"  c #181425",
". c #3F2832",
"X c #743F39",
"o c #B86F50",
"O c None",
/* pixels */
"oooooooooooooooooooooooooooooooO",
"oooooXoXXXXooooX..XXXXXoo.X.XXoo",
"XXXoXXoo   .XX..XX   .XXoo. .XXo",
" ..XXooo..    .Xoo  .XXXooo. .Xo",
" .XXXXooX..  .Xooo. ...oooo.  .O",
"  ..XXXXX..  .Xooo.  ...XXX.   O",
"    .XXX.   ..XXoo    ...X.   XO",
"o.   ...     ..XX.          .Xoo",
"ooX    XoX.   ..X   Xo.    .XXXo",
"ooX. .XoooXX.     .XXoo.  ...XXo",
"XoX  .XoooooX     ...ooX. ....Xo",
"    .XXoooooX.    ....oo. ...XXo",
"   ..XXXoooo.  .X  ...XXX  ..XXO",
"  ....XXXXoX  XXoX  .XXX    .. O",
"  ...XXXXXX  XXXooX  .  Xoo    O",
".  .XX      .X.XXoo.   .XXoo   O",
"X.     .X  ......XXX.  ...Xo. OO",
"oo    XXoX ...    ..     ..XX OO",
"oo.  .Xooo     ..X   XXX   .. OO",
"ooX. ..XooX   .oooX  XXoo    .XO",
"oooX ...oo.  .Xoooo ...ooX  .Xoo",
"ooXX  ..Xo   ..Xooo ...XoX  .ooo",
"oXX   ..X. ...Xooo.  .XXX  .XoXo",
"oX     ..  ...Xoo.    X.  ...XXo",
"X         ...XXX.  oo       .XXo",
"     .o     ...  oooo.  ooo.  .o",
"     .ooo.      .ooooo .Xooo.  O",
"      .Xoo.    .XXXooo ..Xoo.  O",
"      .XXoo.   ..XXooX  .XX.  Xo",
"      ...Xoo. ....XXoo. ...  .oo",
"       ...XX. ....XXoo.      ooo",
"        ..      ...XX.      ..oo"
};
